<svg width="148" height="20" viewBox="0 0 148 20" fill="none" xmlns="http://www.w3.org/2000/svg">
<path d="M17.3928 19.4866H13.6888V3.54316H7.24701L5.95865 14.3331C5.47552 18.1982 3.54298 19.9697 0 19.4866V16.2657C1.77149 16.2657 2.41567 15.2994 2.73776 13.689L4.3482 0.322266H17.3928V19.4866Z" fill="#0066FF"/>
<path d="M25.2839 15.1368C25.9281 15.942 26.8944 16.4251 27.8607 16.4251C28.988 16.4251 29.9542 15.942 30.4374 15.1368C30.5984 14.9757 30.5984 14.8147 30.7595 14.6536L34.3024 16.2641C33.9803 16.5862 33.8193 17.0693 33.4972 17.3914C32.0478 19.0018 29.9542 19.807 27.8607 19.646C25.7671 19.485 23.6735 18.8408 22.3851 17.2303C21.0968 15.7809 20.6136 13.8484 20.6136 12.0769C20.6136 10.1444 21.2578 8.37288 22.3851 6.92348C23.6735 5.31304 25.7671 4.50781 27.8607 4.50781C29.9542 4.50781 32.2089 5.31304 33.4972 6.92348C34.7856 8.37288 35.2687 10.1444 35.2687 12.0769C35.2687 12.399 35.2687 12.7211 35.2687 13.0432H24.6398C24.6398 13.8484 24.9619 14.6536 25.2839 15.1368ZM25.2839 9.17811C24.9619 9.5002 24.8008 9.98333 24.6398 10.3054H31.0815C30.9205 9.82228 30.7595 9.5002 30.5984 9.17811C29.9542 8.37288 28.988 7.88975 28.0217 7.88975C26.8944 7.88975 25.9281 8.37288 25.2839 9.17811Z" fill="#0066FF"/>
<path d="M51.5343 4.99112V19.4851H47.8303V13.6875H41.8716V19.3241H38.1676V4.83008H41.8716V10.1445H47.8303V4.99112H51.5343Z" fill="#0066FF"/>
<path d="M67.1555 8.21308H62.4852V19.4862H58.7811V8.21308H54.1108V4.99219H67.3165V8.21308H67.1555Z" fill="#0066FF"/>
<path d="M68.7661 7.56766C68.7661 7.40662 68.9271 7.24557 69.0882 7.08453C70.3765 5.31304 72.3091 4.50781 74.7247 4.50781C77.3015 4.50781 79.5561 5.31304 80.6834 7.40662C81.1665 8.37288 81.4886 9.33915 81.4886 10.3054V19.3239H78.2677V16.9082C77.9456 17.7135 77.1404 18.5187 76.4962 18.8408C75.53 19.485 74.2416 19.646 73.1143 19.646C71.6649 19.646 70.2155 19.0018 69.4103 18.0356C68.605 17.0693 68.283 16.2641 68.283 14.9757C68.283 13.3653 69.2492 11.9159 70.5376 11.1106C72.148 10.3054 73.2753 10.3054 75.3689 9.82229L77.6235 9.5002C77.4625 8.85602 77.1404 8.53393 76.4962 8.21184C75.8521 7.88975 75.2079 7.72871 74.4027 7.72871C73.4364 7.72871 72.6312 7.88975 72.148 8.69497C71.987 8.85602 71.987 8.85602 71.8259 9.01706L68.7661 7.56766ZM75.2079 13.2042C73.5974 13.5263 71.987 13.8484 71.987 14.9757C71.987 15.7809 72.6312 16.5862 73.9195 16.5862C75.3689 16.5862 77.3015 15.7809 77.7846 14.0094C77.9456 13.3653 77.9456 12.8821 77.9456 12.7211L75.2079 13.2042Z" fill="#0066FF"/>
<path d="M100.653 13.0446C100.653 14.333 100.17 15.7824 99.3644 16.7486C98.5592 17.876 97.4319 18.6812 96.1435 19.0033C95.4993 19.1643 94.8551 19.3254 94.211 19.3254H85.3535V0H98.3981V3.70403H89.0575V6.60283H94.211C96.3046 6.60283 98.2371 7.5691 99.3644 9.17954C100.17 10.3069 100.653 11.7563 100.653 13.0446ZM96.3045 11.2731C95.8214 10.4679 94.8551 10.1458 94.211 10.1458H89.0575V16.1045H94.211C95.0162 16.1045 95.8214 15.6213 96.3045 15.1382C96.6266 14.494 96.9487 13.6888 96.9487 13.0446C96.9487 12.4004 96.7877 11.7563 96.3045 11.2731Z" fill="#0066FF"/>
<path d="M102.747 7.56766C102.747 7.40662 102.908 7.24557 103.069 7.08453C104.357 5.31304 106.29 4.50781 108.705 4.50781C111.282 4.50781 113.537 5.31304 114.664 7.40662C115.147 8.37288 115.469 9.33915 115.469 10.3054V19.3239H112.248V16.9082C111.926 17.7135 111.121 18.5187 110.477 18.8408C109.349 19.485 108.222 19.8071 107.095 19.8071C105.645 19.8071 104.196 19.1629 103.391 18.1966C102.586 17.2303 102.263 16.4251 102.263 15.1368C102.263 13.5263 103.23 12.0769 104.518 11.2717C106.128 10.4665 107.256 10.4665 109.349 9.98333L111.604 9.66124C111.443 9.01706 111.121 8.69497 110.477 8.37288C109.833 8.05079 109.188 7.88975 108.383 7.88975C107.417 7.88975 106.612 8.05079 106.128 8.85602C105.967 9.01706 105.967 9.01706 105.806 9.17811L102.747 7.56766ZM109.188 13.2042C107.578 13.5263 105.967 13.8484 105.967 14.9757C105.967 15.7809 106.612 16.5862 107.9 16.5862C109.349 16.5862 111.282 15.7809 111.765 14.0094C111.926 13.3653 111.926 12.8821 111.926 12.7211L109.188 13.2042Z" fill="#0066FF"/>
<path d="M132.218 4.99112V19.4851H128.514V13.6875H122.555V19.3241H118.851V4.83008H122.555V10.1445H128.514V4.99112H132.218Z" fill="#0066FF"/>
<path d="M147.839 8.21308H143.169V19.4862H139.465V8.21308H134.794V4.99219H148V8.21308H147.839Z" fill="#0066FF"/>
</svg>
