<svg width="28" height="28" viewBox="0 0 28 28" fill="none" xmlns="http://www.w3.org/2000/svg">
<circle cx="14" cy="14" r="14" fill="white"/>
<circle cx="14" cy="14" r="13.5" stroke="black" stroke-opacity="0.3"/>
<path d="M14.8307 14.0004L18.5318 10.2992C18.7617 10.0694 18.7617 9.69665 18.5318 9.4669C18.3018 9.23695 17.9295 9.23695 17.6995 9.4669L13.9985 13.1681L10.2972 9.4669C10.0673 9.23695 9.69488 9.23695 9.46494 9.4669C9.23499 9.69665 9.23499 10.0694 9.46494 10.2992L13.1662 14.0004L9.46494 17.7016C9.23499 17.9314 9.23499 18.3042 9.46494 18.5339C9.57991 18.6487 9.73059 18.7062 9.88107 18.7062C10.0316 18.7062 10.1822 18.6487 10.2972 18.5337L13.9985 14.8325L17.6995 18.5337C17.8145 18.6487 17.9652 18.7062 18.1157 18.7062C18.2661 18.7062 18.4168 18.6487 18.5318 18.5337C18.7617 18.304 18.7617 17.9312 18.5318 17.7014L14.8307 14.0004Z" fill="#1C1C1C" fill-opacity="0.5"/>
</svg>
