<svg width="43" height="45" viewBox="0 0 43 45" fill="none" xmlns="http://www.w3.org/2000/svg">
<path d="M22.3806 28.4917C23.1614 28.431 23.8731 28.0327 24.3351 27.3975L31.3574 17.6895C31.5726 17.3917 31.5404 16.9807 31.2794 16.7197C31.0184 16.4595 30.6074 16.4272 30.3096 16.6417L20.6001 23.6662C19.9671 24.1267 19.5689 24.8385 19.5081 25.6192C19.4474 26.4 19.7301 27.1642 20.2829 27.717C20.7861 28.221 21.4649 28.5 22.1706 28.5C22.2404 28.5 22.3101 28.497 22.3806 28.4917ZM21.0036 25.7362C21.0299 25.3935 21.2054 25.0807 21.4814 24.8797L27.4041 20.595L23.1209 26.5162C22.9184 26.7945 22.6056 26.9692 22.2629 26.9962C21.9216 27.0187 21.5864 26.9002 21.3426 26.6565C21.1011 26.4142 20.9766 26.0782 21.0036 25.7362Z" fill="black"/>
<path d="M39.1808 14.673C39.1733 14.6572 39.1733 14.6407 39.165 14.625C39.156 14.61 39.1418 14.6018 39.132 14.5875C38.3738 13.287 37.4768 12.0772 36.4583 10.9808L38.0693 9.3705L39.1298 10.431L42.3113 7.24875L39.1298 4.06725L35.9475 7.24875L37.0088 8.31L35.3978 9.92025C34.3013 8.90175 33.0923 8.004 31.791 7.24575C31.7768 7.236 31.7685 7.22175 31.7535 7.21275C31.7378 7.20375 31.7213 7.2045 31.7055 7.19625C29.3858 5.85975 26.7795 4.9695 24.0008 4.64325V3.75H25.1258C26.16 3.75 27.0008 2.90925 27.0008 1.875C27.0008 0.84075 26.1593 0 25.125 0H18.375C17.3408 0 16.5 0.84075 16.5 1.875C16.5 2.90925 17.3408 3.75 18.375 3.75H19.5V4.617C18.69 4.70325 17.8815 4.83525 17.082 5.01825C16.6785 5.1105 16.4258 5.51325 16.5188 5.91675C16.611 6.32025 17.0138 6.57375 17.4173 6.48C18.1073 6.32175 18.804 6.2025 19.5023 6.12225L20.307 6.06C20.553 6.04125 20.7795 6.02775 21 6.01725V7.5C21 7.91475 21.3353 8.25 21.75 8.25C22.1648 8.25 22.5 7.91475 22.5 7.5V6.0225C25.3208 6.15225 27.9788 6.90975 30.342 8.15625L29.6025 9.4365C29.3955 9.79575 29.5185 10.254 29.877 10.461C29.9948 10.5293 30.1238 10.5615 30.2513 10.5615C30.5108 10.5615 30.7628 10.4272 30.9015 10.1865L31.6388 8.90925C33.9855 10.398 35.979 12.3915 37.4678 14.7382L36.1905 15.4755C35.8328 15.6825 35.7098 16.1408 35.9175 16.5C36.057 16.7407 36.3083 16.875 36.5678 16.875C36.6953 16.875 36.8243 16.8427 36.942 16.7745L38.2223 16.035C39.486 18.432 40.2458 21.1335 40.359 23.9993H38.8778C38.463 23.9993 38.1278 24.3345 38.1278 24.7493C38.1278 25.164 38.463 25.4993 38.8778 25.4993H40.359C40.2458 28.365 39.486 31.0665 38.2223 33.4635L36.942 32.724C36.5835 32.517 36.1245 32.6385 35.9175 32.9985C35.7105 33.3577 35.8335 33.816 36.192 34.023L37.4693 34.7603C35.9805 37.107 33.987 39.1005 31.6403 40.5892L30.903 39.312C30.6953 38.952 30.2355 38.8298 29.8785 39.0375C29.5193 39.2445 29.3963 39.7035 29.604 40.062L30.3435 41.3423C27.9803 42.5887 25.3223 43.3462 22.5015 43.476V42C22.5015 41.5853 22.1663 41.25 21.7515 41.25C21.3368 41.25 21.0015 41.5853 21.0015 42V43.482C19.8038 43.4408 18.6023 43.2908 17.4195 43.0192C17.016 42.9225 16.6133 43.179 16.521 43.5825C16.428 43.986 16.6808 44.3887 17.0843 44.481C18.5813 44.826 20.1105 45 21.6278 45C21.6645 45 21.6998 44.9977 21.7365 44.997C21.7418 44.997 21.7455 45 21.75 45C21.756 45 21.7613 44.9963 21.7673 44.9963C25.3725 44.9715 28.755 43.998 31.6815 42.3165C31.7048 42.306 31.7295 42.3008 31.752 42.2873C31.767 42.2782 31.7753 42.264 31.7895 42.2542C34.8188 40.4888 37.35 37.9605 39.1193 34.9335C39.1335 34.9132 39.1515 34.8975 39.1643 34.875C39.1733 34.8592 39.1725 34.8428 39.18 34.827C40.893 31.857 41.8778 28.4175 41.8778 24.75C41.8778 21.0825 40.893 17.643 39.1808 14.673ZM39.129 6.18825L40.1895 7.24875L39.129 8.31L38.0678 7.24875L39.129 6.18825ZM21 4.51575V2.25H18.375C18.1688 2.25 18 2.08125 18 1.875C18 1.66875 18.1688 1.5 18.375 1.5H25.125C25.3313 1.5 25.5 1.66875 25.5 1.875C25.5 2.08125 25.3313 2.25 25.125 2.25H22.5V4.51575C22.239 4.50525 21.99 4.5 21.75 4.5C21.729 4.5 21.705 4.5015 21.684 4.5015C21.6653 4.5015 21.6465 4.5 21.6278 4.5C21.5048 4.5 21.3818 4.50825 21.2588 4.5105C21.1718 4.51275 21.09 4.512 21 4.51575Z" fill="black"/>
<path d="M15 10.5H11.25C10.8352 10.5 10.5 10.8353 10.5 11.25C10.5 11.6648 10.8352 12 11.25 12H15C15.4147 12 15.75 11.6648 15.75 11.25C15.75 10.8353 15.4147 10.5 15 10.5Z" fill="black"/>
<path d="M15 15.75H7.5C7.08525 15.75 6.75 16.0853 6.75 16.5C6.75 16.9147 7.08525 17.25 7.5 17.25H15C15.4147 17.25 15.75 16.9147 15.75 16.5C15.75 16.0853 15.4147 15.75 15 15.75Z" fill="black"/>
<path d="M15 21H3.75C3.33525 21 3 21.3353 3 21.75C3 22.1647 3.33525 22.5 3.75 22.5H15C15.4147 22.5 15.75 22.1647 15.75 21.75C15.75 21.3353 15.4147 21 15 21Z" fill="black"/>
<path d="M15 26.25H0.75C0.33525 26.25 0 26.5853 0 27C0 27.4147 0.33525 27.75 0.75 27.75H15C15.4147 27.75 15.75 27.4147 15.75 27C15.75 26.5853 15.4147 26.25 15 26.25Z" fill="black"/>
<path d="M15 31.5H5.25C4.83525 31.5 4.5 31.8353 4.5 32.25C4.5 32.6647 4.83525 33 5.25 33H15C15.4147 33 15.75 32.6647 15.75 32.25C15.75 31.8353 15.4147 31.5 15 31.5Z" fill="black"/>
<path d="M15 36.75H9.75C9.33525 36.75 9 37.0853 9 37.5C9 37.9147 9.33525 38.25 9.75 38.25H15C15.4147 38.25 15.75 37.9147 15.75 37.5C15.75 37.0853 15.4147 36.75 15 36.75Z" fill="black"/>
</svg>
