<svg width="37" height="45" viewBox="0 0 37 45" fill="none" xmlns="http://www.w3.org/2000/svg">
<path d="M11.1664 18.3474C11.1664 17.7343 10.6647 17.2327 10.0516 17.2327H1.11478C0.501652 17.2327 0 17.7343 0 18.3474C0 18.9606 0.501652 19.4622 1.11478 19.4622H10.0516C10.6647 19.4622 11.1664 18.9606 11.1664 18.3474Z" fill="black"/>
<path d="M35.5799 17.2327H26.6431C26.03 17.2327 25.5283 17.7343 25.5283 18.3474C25.5283 18.9606 26.03 19.4622 26.6431 19.4622H35.5799C36.1931 19.4622 36.6947 18.9606 36.6947 18.3474C36.6947 17.7343 36.2024 17.2327 35.5799 17.2327Z" fill="black"/>
<path d="M18.3472 11.1664C18.9603 11.1664 19.462 10.6647 19.462 10.0516V1.11478C19.462 0.501652 18.9603 0 18.3472 0C17.7341 0 17.2324 0.501652 17.2324 1.11478V10.0516C17.2324 10.6647 17.7341 11.1664 18.3472 11.1664Z" fill="black"/>
<path d="M24.2094 13.6003C24.4974 13.6003 24.7761 13.4888 24.999 13.2752L31.3254 6.9488C31.762 6.51218 31.762 5.80615 31.3254 5.36953C30.8888 4.93291 30.1828 4.93291 29.7461 5.36953L23.4198 11.6959C22.9831 12.1325 22.9831 12.8386 23.4198 13.2752C23.6427 13.4888 23.9307 13.6003 24.2094 13.6003Z" fill="black"/>
<path d="M11.6958 13.2752C11.9095 13.4888 12.1975 13.6003 12.4855 13.6003C12.7735 13.6003 13.0522 13.4888 13.2751 13.2752C13.7117 12.8386 13.7117 12.1325 13.2751 11.6959L6.94873 5.36953C6.51211 4.93291 5.80608 4.93291 5.36946 5.36953C4.93284 5.80615 4.93284 6.51218 5.36946 6.9488L11.6958 13.2752Z" fill="black"/>
<path d="M31.7433 25.3798C30.8979 24.6552 29.8296 24.2558 28.7427 24.2558H27.7301H24.0885H22.3605V19.7502C22.3605 17.595 21.7195 16.025 20.4468 15.0867C18.4402 13.6189 15.7183 14.4457 15.5975 14.4829C15.133 14.6315 14.8172 15.0588 14.8172 15.5419V20.9765C14.8172 22.6301 14.0276 24.0328 12.4576 25.1569C11.2685 26.0116 10.0515 26.4017 9.89358 26.4482L9.7821 26.476C9.36405 26.0023 8.75092 25.705 8.06348 25.705H3.82731C2.56389 25.705 1.53271 26.7362 1.53271 27.9996V41.8972C1.53271 43.1606 2.56389 44.1918 3.82731 44.1918H8.08206C8.63945 44.1918 9.15968 43.9874 9.54985 43.653C10.4045 44.4891 11.5657 45 12.8199 45H17.0468H17.4834H26.1322C27.47 45 28.6498 44.6749 29.5509 44.071C30.7028 43.2907 31.4181 42.0551 31.6225 40.4758L33.3411 29.7925C33.6105 28.1389 32.9974 26.4482 31.7433 25.3798ZM8.14708 41.8972C8.14708 41.9343 8.11922 41.9622 8.08206 41.9622H3.82731C3.79015 41.9622 3.76228 41.9343 3.76228 41.8972V27.9996C3.76228 27.9624 3.79015 27.9346 3.82731 27.9346H8.08206C8.11922 27.9346 8.14708 27.9624 8.14708 27.9996V41.8972ZM31.1395 29.4488L29.4208 40.1507C29.4208 40.16 29.4208 40.1786 29.4115 40.1971C29.3372 40.8381 29.0957 42.7797 26.1322 42.7797H17.4834H17.0468H12.8199C11.6308 42.7797 10.5903 41.8879 10.4045 40.7081C10.3952 40.6616 10.3859 40.6152 10.3766 40.578V28.6313L10.4417 28.6127C10.4603 28.6127 10.4695 28.6034 10.4881 28.6034C10.5532 28.5848 12.1324 28.1389 13.7024 27.0149C15.8855 25.4635 17.0468 23.3732 17.0468 20.9765V16.4616C17.6599 16.3966 18.5053 16.4244 19.1277 16.8796C19.7966 17.372 20.131 18.3381 20.131 19.7409V25.3613C20.131 25.9744 20.6326 26.476 21.2458 26.476H24.0885H27.7301H28.7427C29.3001 26.476 29.8482 26.6897 30.2941 27.0613C30.9629 27.6373 31.2788 28.5477 31.1395 29.4488Z" fill="black"/>
</svg>
