<svg width="135" height="15" viewBox="0 0 135 15" fill="none" xmlns="http://www.w3.org/2000/svg">
<path d="M1.2 0.233765V1.53376H0V0.233765H1.2ZM1.2 2.83376V10.7338H0V2.83376H1.2Z" fill="black"/>
<path d="M10.1999 6.83377V10.7338H8.9999V6.83377C8.9999 5.73377 8.8999 4.73376 8.0999 4.23376C7.6999 3.93376 7.1999 3.83376 6.5999 3.83376C6.1999 3.83376 5.6999 4.03376 5.2999 4.33376C4.9999 4.63376 4.6999 5.13376 4.5999 5.63376C4.5999 5.93376 4.4999 6.33376 4.4999 6.73376V10.7338H3.3999V2.83376H4.3999V3.73376C4.4999 3.63376 4.5999 3.53376 4.5999 3.43376C5.1999 3.03376 5.9999 2.73376 6.6999 2.73376C7.4999 2.73376 8.2999 2.93376 8.8999 3.43376C9.9999 4.13376 10.1999 5.43376 10.1999 6.83377Z" fill="black"/>
<path d="M14 2.43378V2.93378H16.2V3.93378H14V10.8338H12.8V3.83378H11V2.83378H12.8V2.53378C12.8 1.93378 13 1.13378 13.5 0.633784C14.3 0.0337836 15.3 -0.0662165 16.3 0.0337835V1.03378C15.9 1.03378 15.4 1.03378 15 1.13378C14.3 1.23378 14 1.73378 14 2.43378Z" fill="black"/>
<path d="M17.9 9.73379C17.2 8.93379 17 7.83379 17 6.83379C17 5.83379 17.2 4.73379 17.9 3.93379C18.6 3.13379 19.6 2.63379 20.8 2.63379C21.9 2.63379 23 3.03379 23.7 3.93379C24.4 4.73379 24.6 5.83379 24.6 6.83379C24.6 7.93379 24.4 8.83379 23.7 9.73379C23 10.6338 22 11.0338 20.8 11.0338C19.6 10.9338 18.6 10.5338 17.9 9.73379ZM23.3 6.83379C23.3 6.03379 23.2 5.23379 22.7 4.73379C22.3 4.13379 21.5 3.83379 20.8 3.83379C20 3.83379 19.3 4.13379 18.9 4.73379C18.4 5.23379 18.2 6.03379 18.2 6.83379C18.2 7.63379 18.3 8.43379 18.8 9.03379C19.2 9.63379 20 9.93379 20.7 9.93379C21.5 9.93379 22.2 9.63379 22.6 9.03379C23.1 8.33379 23.3 7.63379 23.3 6.83379Z" fill="black"/>
<path d="M37.8999 6.83378C37.8999 9.73378 36.2999 10.0338 35.4999 10.0338C34.5999 10.0338 33.6999 9.43378 33.3999 8.73378C32.9999 9.03378 32.4999 9.23378 31.9999 9.23378C30.5999 9.23378 29.6999 8.33378 29.6999 6.93378C29.6999 5.53378 30.5999 4.63378 31.9999 4.63378C33.3999 4.63378 34.2999 5.53378 34.2999 6.93378V7.73378C34.2999 8.43378 34.7999 8.93378 35.4999 8.93378C36.1999 8.93378 36.6999 8.43378 36.6999 6.83378C36.6999 3.83378 34.8999 2.03378 31.8999 2.03378C29.2999 2.03378 27.0999 3.33378 27.0999 6.83378C27.0999 10.3338 29.2999 11.6338 31.8999 11.6338V12.8338C28.1999 12.8338 25.8999 10.6338 25.8999 6.83378C25.8999 3.13378 28.0999 0.933777 31.8999 0.933777C35.5999 0.933777 37.8999 3.13378 37.8999 6.83378ZM33.0999 6.83378C33.0999 5.93378 32.4999 5.63378 31.8999 5.63378C31.2999 5.63378 30.6999 5.93378 30.6999 6.83378C30.6999 7.73378 31.3999 8.03378 31.8999 8.03378C32.4999 8.03378 33.0999 7.73378 33.0999 6.83378Z" fill="black"/>
<path d="M45.8999 2.8338L42.9999 10.7338H41.7999L38.8999 2.8338H40.0999L42.3999 9.1338L44.6999 2.8338H45.8999Z" fill="black"/>
<path d="M48.5 0.233765V1.53376H47.3V0.233765H48.5ZM48.5 2.83376V10.7338H47.3V2.83376H48.5Z" fill="black"/>
<path d="M58 6.83379C58 7.83379 57.8 8.93379 57.1 9.73379C56.4 10.5338 55.5 11.0338 54.4 11.0338C53.4 11.0338 52.5 10.6338 51.9 9.93379V14.2338H50.7V2.83379H51.8V3.83379C52.4 3.13379 53.4 2.63379 54.4 2.63379C55.5 2.63379 56.5 3.13379 57.1 3.93379C57.8 4.73379 58 5.83379 58 6.83379ZM56.7 6.83379C56.7 6.03379 56.5 5.23379 56.1 4.63379C55.7 4.03379 54.9 3.73379 54.2 3.73379C53.5 3.73379 52.8 4.03379 52.3 4.53379C51.8 5.13379 51.7 5.93379 51.7 6.73379C51.7 7.53379 51.9 8.43379 52.3 8.93379C52.7 9.53379 53.5 9.73379 54.2 9.73379C54.9 9.73379 55.7 9.43379 56.1 8.83379C56.6 8.43379 56.7 7.63379 56.7 6.83379Z" fill="black"/>
<path d="M66.9 6.83377C66.9 7.83377 66.7 8.93376 66 9.73376C65.3 10.5338 64.4 11.0338 63.3 11.0338C62.2 11.0338 61.3 10.6338 60.6 9.83377V10.8338H59.5V0.233765H60.7V3.73376C61.4 3.03376 62.4 2.63376 63.3 2.63376C64.4 2.63376 65.4 3.13376 66 3.93376C66.7 4.73376 66.9 5.83377 66.9 6.83377ZM65.7 6.83377C65.7 6.03376 65.5 5.23376 65.1 4.63376C64.7 4.03376 63.9 3.73376 63.2 3.73376C62.5 3.73376 61.8 4.03376 61.3 4.53376C60.8 5.13376 60.7 5.93376 60.7 6.73376C60.7 7.53376 60.9 8.43376 61.3 8.93376C61.7 9.53376 62.5 9.73376 63.2 9.73376C63.9 9.73376 64.7 9.43377 65.1 8.83377C65.5 8.43377 65.7 7.63377 65.7 6.83377Z" fill="black"/>
<path d="M69.0001 9.73379C68.3001 8.93379 68.1001 7.83379 68.1001 6.83379C68.1001 5.83379 68.3001 4.73379 69.0001 3.93379C69.7001 3.13379 70.7001 2.63379 71.9001 2.63379C73.0001 2.63379 74.1001 3.03379 74.8001 3.93379C75.5001 4.73379 75.7001 5.83379 75.7001 6.83379C75.7001 7.93379 75.5001 8.83379 74.8001 9.73379C74.1001 10.6338 73.1001 11.0338 71.9001 11.0338C70.7001 10.9338 69.7001 10.5338 69.0001 9.73379ZM74.4001 6.83379C74.4001 6.03379 74.3001 5.23379 73.8001 4.73379C73.4001 4.13379 72.6001 3.83379 71.9001 3.83379C71.1001 3.83379 70.4001 4.13379 70.0001 4.73379C69.5001 5.33379 69.4001 6.13379 69.4001 6.83379C69.4001 7.63379 69.5001 8.43379 70.0001 9.03379C70.4001 9.63379 71.2001 9.93379 71.9001 9.93379C72.7001 9.93379 73.4001 9.63379 73.8001 9.03379C74.2001 8.33379 74.4001 7.63379 74.4001 6.83379Z" fill="black"/>
<path d="M83.7998 2.8338V10.7338H82.6998V9.8338C82.5998 9.9338 82.4998 10.0338 82.3998 10.1338C81.7998 10.6338 81.0998 10.9338 80.2998 10.9338C79.4998 10.9338 78.6998 10.7338 78.0998 10.2338C76.9998 9.4338 76.7998 8.1338 76.7998 6.7338V2.8338H77.9998V6.7338C77.9998 7.8338 78.0998 8.8338 78.8998 9.3338C79.2998 9.6338 79.7998 9.7338 80.3998 9.7338C80.8998 9.7338 81.2998 9.5338 81.6998 9.2338C82.0998 9.0338 82.3998 8.5338 82.4998 8.0338C82.5998 7.5338 82.5998 6.9338 82.5998 6.3338V2.8338H83.7998Z" fill="black"/>
<path d="M92.6999 2.83379V14.2338H91.4999V9.93379C90.8999 10.6338 89.9999 11.0338 88.9999 11.0338C87.8999 11.0338 86.8999 10.6338 86.2999 9.73379C85.5999 8.83379 85.3999 7.83379 85.3999 6.83379C85.3999 5.83379 85.5999 4.73379 86.2999 3.93379C86.8999 3.13379 87.8999 2.63379 88.9999 2.63379C90.0999 2.63379 91.0999 3.03379 91.6999 3.83379V2.83379H92.6999ZM91.5999 6.83379C91.5999 6.03379 91.3999 5.23379 90.9999 4.63379C90.5999 4.03379 89.8999 3.83379 89.0999 3.83379C88.2999 3.83379 87.5999 4.13379 87.1999 4.73379C86.7999 5.33379 86.5999 6.13379 86.5999 6.93379C86.5999 7.73379 86.6999 8.53379 87.1999 9.13379C87.5999 9.73379 88.3999 10.0338 89.0999 10.0338C89.8999 10.0338 90.5999 9.73379 90.9999 9.23379C91.4999 8.43379 91.5999 7.63379 91.5999 6.83379Z" fill="black"/>
<path d="M101.3 2.8338V10.7338H100.2V9.8338C100.1 9.9338 99.9998 10.0338 99.8998 10.1338C99.2998 10.6338 98.5998 10.9338 97.7998 10.9338C96.9998 10.9338 96.1998 10.7338 95.5998 10.2338C94.4998 9.4338 94.2998 8.1338 94.2998 6.7338V2.8338H95.4998V6.7338C95.4998 7.8338 95.5998 8.8338 96.3998 9.3338C96.7998 9.6338 97.2998 9.7338 97.8998 9.7338C98.3998 9.7338 98.7998 9.5338 99.1998 9.2338C99.5998 8.9338 99.7998 8.4338 99.8998 7.9338C99.9998 7.4338 99.9998 6.8338 99.9998 6.2338V2.8338H101.3Z" fill="black"/>
<path d="M104.7 8.93379C105.1 9.53379 105.9 9.83379 106.6 9.83379C107.4 9.83379 108.1 9.53379 108.5 8.93379C108.6 8.83379 108.7 8.63379 108.7 8.53379L109.9 9.03379C109.8 9.23379 109.6 9.53379 109.5 9.73379C108.8 10.5338 107.7 11.0338 106.6 11.0338C105.5 11.0338 104.4 10.6338 103.7 9.73379C103 8.93379 102.8 7.83379 102.8 6.83379C102.8 5.83379 103 4.83379 103.7 3.93379C104.4 3.03379 105.4 2.63379 106.6 2.63379C107.8 2.63379 108.8 3.03379 109.5 3.93379C110.2 4.73379 110.4 5.83379 110.4 6.83379C110.4 6.93379 110.4 7.03379 110.4 7.13379H104.2C104.2 7.83379 104.4 8.43379 104.7 8.93379ZM104.7 4.63379C104.4 5.03379 104.2 5.53379 104.2 6.13379H109.1C109 5.63379 108.9 5.03379 108.6 4.63379C108.2 4.03379 107.4 3.73379 106.7 3.73379C105.9 3.83379 105.2 4.13379 104.7 4.63379Z" fill="black"/>
<path d="M114.1 7.83377C114.1 8.53376 114.1 8.83377 114.3 9.23376C114.5 9.63376 114.8 9.83377 115.2 9.83377C115.6 9.83377 116.1 9.83377 116.5 9.83377V10.9338C116 11.0338 115.2 11.1338 114.7 11.0338C114 10.9338 113.5 10.5338 113.2 9.93376C112.9 9.33376 112.9 8.73376 112.9 8.03376V4.03376H111.1V3.03376H112.9V0.733765H114.1V2.93376H116.5V3.93376H114.1V7.83377Z" fill="black"/>
<path d="M119.8 9.43378V10.7338H118.4V9.43378H119.8Z" fill="black"/>
<path d="M126.7 2.83379V3.93379C126.4 3.83379 126 3.73379 125.5 3.73379C124.9 3.73379 124.3 3.93379 124 4.33379C123.3 5.03379 123.3 5.83379 123.3 6.93379V10.7338H122.1V2.83379H123.2V4.03379C123.4 3.73379 123.6 3.53379 123.9 3.23379C124.4 2.83379 125.1 2.63379 125.7 2.63379C126 2.63379 126.3 2.73379 126.7 2.83379Z" fill="black"/>
<path d="M134.6 2.8338V10.7338H133.5V9.8338C133.4 9.9338 133.3 10.0338 133.2 10.1338C132.6 10.6338 131.9 10.9338 131.1 10.9338C130.3 10.9338 129.5 10.7338 128.9 10.2338C127.8 9.4338 127.6 8.1338 127.6 6.7338V2.8338H128.8V6.7338C128.8 7.8338 128.9 8.8338 129.7 9.3338C130.1 9.6338 130.6 9.7338 131.2 9.7338C131.7 9.7338 132.1 9.5338 132.5 9.2338C132.9 8.9338 133.1 8.4338 133.2 7.9338C133.3 7.4338 133.3 6.8338 133.3 6.2338V2.8338H134.6Z" fill="black"/>
</svg>
