<svg width="40" height="20" viewBox="0 0 40 20" fill="none" xmlns="http://www.w3.org/2000/svg">
<path fill-rule="evenodd" clip-rule="evenodd" d="M1.02012 0.93509C0.412743 0.926211 -0.0590625 1.45535 0.0143867 2.05834L1.58037 14.9144C1.64065 15.4093 2.05057 15.7839 2.54902 15.7916C3.64772 15.8086 5.69479 15.8364 8.10423 15.8513L8.35977 18.0936C8.41649 18.5914 8.82939 18.9701 9.3303 18.9783C11.8355 19.0192 19.2009 19.118 24.2634 18.963C29.286 18.8091 36.4805 18.2597 39.082 18.0523C39.6297 18.0087 40.0344 17.5305 39.9928 16.9827L39.0154 4.11836C38.9733 3.56466 38.4922 3.15062 37.9387 3.19478C37.1582 3.25704 35.9707 3.34961 34.5541 3.45293L34.3485 0.920137C34.3038 0.370779 33.8238 -0.0392483 33.2742 0.0018635C30.5535 0.205367 22.8229 0.75998 17.3732 0.916961C11.9825 1.07225 3.97109 0.978226 1.02012 0.93509Z" fill="#FA1057"/>
</svg>
