<svg width="40" height="21" viewBox="0 0 40 21" fill="none" xmlns="http://www.w3.org/2000/svg">
<path fill-rule="evenodd" clip-rule="evenodd" d="M1.0148 1.97868C0.409375 1.96937 -0.0624196 2.49485 0.00734114 3.09631L1.585 16.6986C1.64264 17.1956 2.05319 17.5732 2.55346 17.5813C3.65322 17.5991 5.69816 17.6283 8.10455 17.644L8.36428 20.0375C8.41851 20.5372 8.83204 20.9188 9.33461 20.9274C11.8437 20.9704 19.2039 21.074 24.2637 20.9113C29.2912 20.7495 36.4949 20.1715 39.09 19.9542C39.6344 19.9087 40.0366 19.4336 39.9972 18.8887L39.0126 5.27891C38.9723 4.72203 38.488 4.3053 37.9316 4.3519C37.1511 4.41729 35.9664 4.51424 34.5542 4.62241L34.3454 1.92121C34.3027 1.36866 33.8198 0.955831 33.2673 0.999224C30.5404 1.21339 22.8184 1.795 17.3734 1.95972C11.9793 2.1229 3.96132 2.02394 1.0148 1.97868Z" fill="#FA1057"/>
</svg>
