<svg width="50" height="25" viewBox="0 0 50 25" fill="none" xmlns="http://www.w3.org/2000/svg">
<path fill-rule="evenodd" clip-rule="evenodd" d="M1.95777 1.24706C1.35315 1.23733 0.883185 1.76128 0.951419 2.36212L2.93129 19.796C2.98783 20.2939 3.40255 20.6729 3.90357 20.6813C5.19151 20.7031 7.78265 20.742 10.8579 20.7625L11.1976 23.9608C11.2508 24.4613 11.6628 24.844 12.166 24.8531C15.024 24.9043 24.2592 25.0436 30.5646 24.8364C36.8456 24.63 45.9117 23.8793 48.8674 23.6251C49.4104 23.5784 49.8078 23.1049 49.7693 22.5613L48.5339 5.11633C48.4944 4.55806 48.0101 4.14008 47.4525 4.18806C46.5111 4.26906 44.9745 4.39833 43.114 4.54391L42.841 0.937017C42.799 0.383094 42.3206 -0.0313469 41.7669 0.0133046C38.6591 0.263917 28.9566 1.01755 22.1616 1.22749C15.4213 1.43575 5.32155 1.30121 1.95777 1.24706Z" fill="#75C700"/>
</svg>
