<svg width="25" height="25" viewBox="0 0 25 25" fill="none" xmlns="http://www.w3.org/2000/svg">
<path d="M16.8878 13.7624C17.823 13.3292 18.7541 13.0132 19.6687 12.8196C19.9325 12.7638 20.1011 12.5047 20.0453 12.2408C19.9895 11.977 19.7307 11.8084 19.4665 11.8642C18.4078 12.0883 17.3325 12.4629 16.2572 12.9807C15.6564 12.2642 14.9687 11.5151 14.2268 10.7732C13.4384 9.9848 12.6417 9.25716 11.8849 8.6307C12.5398 7.80262 13.0743 6.87547 13.4787 5.86078C14.1093 4.2787 14.429 2.47119 14.429 0.48828C14.429 0.218603 14.2103 0 13.9407 0C13.6711 0 13.4524 0.218603 13.4524 0.48828C13.4524 3.54355 12.669 6.07216 11.122 8.02342C10.83 7.80072 10.547 7.59603 10.2766 7.41376C8.82953 6.43773 7.96762 6.20897 7.48588 6.67343C7.48246 6.6766 7.4789 6.67972 7.47558 6.683C7.47509 6.68348 7.4746 6.68392 7.47411 6.68436C7.47382 6.68466 7.47358 6.685 7.47328 6.68524C7.34989 6.80892 7.27372 6.95848 7.24486 7.13695L0.0379937 24.3229C-0.0386664 24.5057 0.00283747 24.7168 0.143023 24.857C0.23648 24.9504 0.361382 25 0.488432 25C0.552006 25 0.616166 24.9876 0.677153 24.962C0.67852 24.9614 0.677153 24.962 0.67852 24.9614L17.8631 17.755C18.026 17.7286 18.1645 17.662 18.2815 17.5567C18.29 17.5496 18.298 17.5421 18.3059 17.5346C18.3091 17.5315 18.3124 17.529 18.3155 17.5258C18.316 17.5254 18.3164 17.5248 18.3168 17.5244C18.3202 17.5211 18.3233 17.5174 18.3265 17.514C18.7909 17.0322 18.5622 16.1703 17.5862 14.7233C17.3799 14.4175 17.1454 14.0955 16.8878 13.7624ZM3.8728 21.5214C3.7709 22.1568 3.54429 22.5745 3.43525 22.7464L1.40015 23.5998L3.46699 18.6712C3.87139 19.6849 4.01157 20.656 3.8728 21.5214ZM6.87748 19.8693C6.68061 20.9916 6.15844 21.5325 6.00996 21.6667L4.72329 22.2063C5.00932 21.188 5.08452 19.5716 3.9791 17.45L5.44238 13.9608C6.96059 16.8392 7.0745 18.7464 6.87748 19.8693ZM8.61923 20.5724L7.56679 21.0138C7.66708 20.7605 7.75551 20.4719 7.81957 20.1449C8.21039 18.1501 7.5724 15.6837 5.92431 12.8115L6.45263 11.5517C6.87079 12.0549 7.34726 12.7671 7.54023 13.2161C7.61967 13.401 7.7998 13.5117 7.98905 13.5117C8.05336 13.5117 8.11879 13.4989 8.18163 13.4719C8.42938 13.3655 8.54389 13.0783 8.43744 12.8305C8.15111 12.1643 7.42509 11.1277 6.86972 10.5572L7.67699 8.63211C7.8184 8.89139 7.99355 9.17547 8.2036 9.4869C8.34823 9.70135 8.50668 9.92366 8.67709 10.1522C10.3473 12.6866 10.3096 15.2808 9.98304 17.0117C9.63583 18.8528 8.89232 20.2007 8.61923 20.5724ZM12.3816 18.9947L10.0635 19.9668C10.3982 19.2326 10.7397 18.2688 10.9426 17.1928C11.1693 15.9909 11.2689 14.4105 10.8495 12.7038C11.0808 12.9481 11.3188 13.193 11.5629 13.4371C12.2932 14.1674 13.0305 14.8451 13.7367 15.439C13.6667 17.7444 12.6093 18.7948 12.3816 18.9947ZM14.0647 18.2889C14.3261 17.7482 14.5569 17.0512 14.6598 16.1808C14.9545 16.4058 15.2403 16.6125 15.5131 16.7965C15.8246 17.0066 16.1087 17.1817 16.368 17.3231L14.0647 18.2889ZM15.7821 15.7952C14.7205 15.0431 13.4674 13.9604 12.2534 12.7465C11.0396 11.5326 9.95682 10.2794 9.20477 9.2179C8.47748 8.19139 8.28148 7.66722 8.22987 7.44017C8.45692 7.49183 8.98109 7.68783 10.0076 8.41507C10.1598 8.52293 10.3163 8.63822 10.4757 8.75907C10.4414 8.79432 10.4077 8.82992 10.3728 8.86473C10.1822 9.0554 10.1822 9.36458 10.3728 9.5553C10.4682 9.65062 10.5932 9.69832 10.7181 9.69832C10.8431 9.69832 10.9681 9.65062 11.0634 9.5553C11.1247 9.49398 11.1851 9.43182 11.2448 9.36907C11.9855 9.98133 12.7686 10.6962 13.5363 11.4638C14.1964 12.1239 14.817 12.7954 15.3675 13.4415C15.2793 13.4905 15.1912 13.5403 15.1031 13.5912C14.8695 13.726 14.7895 14.0247 14.9243 14.2582C15.0148 14.4148 15.1789 14.5024 15.3477 14.5024C15.4305 14.5024 15.5145 14.4813 15.5913 14.4369C15.7269 14.3586 15.8625 14.2834 15.9981 14.21C16.2103 14.4795 16.4072 14.7414 16.5849 14.9924C17.3123 16.0189 17.5082 16.5431 17.5598 16.7701C17.3327 16.7184 16.8085 16.5224 15.7821 15.7952Z" fill="#1C1C1C"/>
<path d="M8.83213 14.0885C8.72144 13.8426 8.43242 13.7329 8.18648 13.8436C7.94819 13.9508 7.83784 14.2256 7.93189 14.4662C8.00581 14.6597 8.19063 14.7802 8.38794 14.7802C8.44146 14.7802 8.49585 14.7713 8.54927 14.7526C8.80376 14.6636 8.93794 14.385 8.84883 14.1305C8.84419 14.1172 8.83789 14.1013 8.83213 14.0885Z" fill="#1C1C1C"/>
<path d="M18.2338 7.5533C18.3292 7.64862 18.4541 7.69632 18.5791 7.69632C18.7041 7.69632 18.829 7.64862 18.9244 7.5533C20.0153 6.46234 21.7828 5.96234 23.0733 5.85819C23.3421 5.83651 23.5424 5.60096 23.5207 5.33221C23.499 5.06342 23.264 4.86391 22.9948 4.8848C21.5312 5.00292 19.512 5.58456 18.2338 6.86278C18.0432 7.05345 18.0432 7.36263 18.2338 7.5533Z" fill="#1C1C1C"/>
<path d="M24.6382 4.9787C24.6244 4.97499 24.6103 4.97133 24.5961 4.96776C24.3344 4.90253 24.0695 5.06195 24.0043 5.32362C23.9392 5.58529 24.0985 5.85028 24.3602 5.91542L24.3851 5.92186C24.4275 5.93324 24.4701 5.93871 24.512 5.93871C24.7275 5.93871 24.9248 5.79491 24.9833 5.57684C25.0531 5.31639 24.8987 5.04862 24.6382 4.9787Z" fill="#1C1C1C"/>
<path d="M3.58911 4.0831H4.07739V4.57138C4.07739 4.841 4.29599 5.05966 4.56567 5.05966C4.83535 5.05966 5.05395 4.841 5.05395 4.57138V4.0831H5.54223C5.81191 4.0831 6.03051 3.86444 6.03051 3.59482C6.03051 3.32519 5.81191 3.10654 5.54223 3.10654H5.05395V2.61825C5.05395 2.34863 4.83535 2.12997 4.56567 2.12997C4.29599 2.12997 4.07739 2.34863 4.07739 2.61825V3.10654H3.58911C3.31943 3.10654 3.10083 3.32519 3.10083 3.59482C3.10083 3.86449 3.31943 4.0831 3.58911 4.0831Z" fill="#1C1C1C"/>
<path d="M15.0146 8.81937H15.503V9.3076C15.503 9.57727 15.7216 9.79588 15.9913 9.79588C16.2609 9.79588 16.4795 9.57727 16.4795 9.3076V8.81937H16.9678C17.2374 8.81937 17.456 8.60071 17.456 8.33109C17.456 8.06146 17.2374 7.8428 16.9678 7.8428H16.4795V7.35448C16.4795 7.08485 16.2609 6.8662 15.9913 6.8662C15.7216 6.8662 15.503 7.08485 15.503 7.35448V7.8428H15.0146C14.745 7.8428 14.5264 8.06146 14.5264 8.33109C14.5264 8.60076 14.745 8.81937 15.0146 8.81937Z" fill="#1C1C1C"/>
<path d="M21.8018 20.3915H21.3135V19.9032C21.3135 19.6336 21.0948 19.4149 20.8252 19.4149C20.5556 19.4149 20.3369 19.6336 20.3369 19.9032V20.3915H19.8486C19.579 20.3915 19.3604 20.6102 19.3604 20.8798C19.3604 21.1494 19.579 21.3681 19.8486 21.3681H20.3369V21.8563C20.3369 22.126 20.5556 22.3446 20.8252 22.3446C21.0948 22.3446 21.3135 22.126 21.3135 21.8563V21.3681H21.8018C22.0714 21.3681 22.29 21.1494 22.29 20.8798C22.29 20.6102 22.0714 20.3915 21.8018 20.3915Z" fill="#1C1C1C"/>
<path d="M19.0413 2.92979C19.849 2.92979 20.5061 2.27266 20.5061 1.46495C20.5061 0.657234 19.849 0.000106812 19.0413 0.000106812C18.2335 0.000106812 17.5764 0.657234 17.5764 1.46495C17.5764 2.27266 18.2335 2.92979 19.0413 2.92979ZM19.0413 0.976667C19.3105 0.976667 19.5295 1.19571 19.5295 1.46495C19.5295 1.73419 19.3105 1.95323 19.0413 1.95323C18.772 1.95323 18.553 1.73419 18.553 1.46495C18.553 1.19571 18.772 0.976667 19.0413 0.976667Z" fill="#1C1C1C"/>
<path d="M22.0947 8.47752C21.287 8.47752 20.6299 9.13465 20.6299 9.94236C20.6299 10.7501 21.287 11.4072 22.0947 11.4072C22.9024 11.4072 23.5596 10.7501 23.5596 9.94236C23.5596 9.13465 22.9024 8.47752 22.0947 8.47752ZM22.0947 10.4306C21.8255 10.4306 21.6064 10.2116 21.6064 9.94236C21.6064 9.67313 21.8255 9.45408 22.0947 9.45408C22.364 9.45408 22.583 9.67313 22.583 9.94236C22.583 10.2116 22.364 10.4306 22.0947 10.4306Z" fill="#1C1C1C"/>
<path d="M9.69238 4.66899C10.5001 4.66899 11.1572 4.01186 11.1572 3.20414C11.1572 2.39643 10.5001 1.7393 9.69238 1.7393C8.88467 1.7393 8.22754 2.39643 8.22754 3.20414C8.22754 4.01186 8.88467 4.66899 9.69238 4.66899ZM9.69238 2.71586C9.96162 2.71586 10.1807 2.93491 10.1807 3.20414C10.1807 3.47338 9.96162 3.69243 9.69238 3.69243C9.42314 3.69243 9.2041 3.47338 9.2041 3.20414C9.2041 2.93496 9.42314 2.71586 9.69238 2.71586Z" fill="#1C1C1C"/>
<path d="M21.9331 14.3583C21.9331 14.0894 21.7138 13.87 21.4448 13.87C21.1759 13.87 20.9565 14.0894 20.9565 14.3583C20.9565 14.6273 21.1759 14.8466 21.4448 14.8466C21.7138 14.8466 21.9331 14.6272 21.9331 14.3583Z" fill="#1C1C1C"/>
<path d="M16.3667 4.64165C16.6356 4.64165 16.855 4.42231 16.855 4.15337C16.855 3.88442 16.6356 3.66508 16.3667 3.66508C16.0978 3.66508 15.8784 3.88442 15.8784 4.15337C15.8785 4.42226 16.0978 4.64165 16.3667 4.64165Z" fill="#1C1C1C"/>
<path d="M22.9097 17.5321C22.6408 17.5321 22.4214 17.7515 22.4214 18.0204C22.4214 18.2894 22.6408 18.5087 22.9097 18.5087C23.1786 18.5087 23.398 18.2894 23.398 18.0204C23.398 17.7515 23.1786 17.5321 22.9097 17.5321Z" fill="#1C1C1C"/>
<path d="M6.79663 1.46495C7.06557 1.46495 7.28491 1.24561 7.28491 0.976668C7.28491 0.707724 7.06557 0.488388 6.79663 0.488388C6.52769 0.488388 6.30835 0.707724 6.30835 0.976668C6.30835 1.24561 6.52769 1.46495 6.79663 1.46495Z" fill="#1C1C1C"/>
</svg>
