<svg width="29" height="26" viewBox="0 0 29 26" fill="none" xmlns="http://www.w3.org/2000/svg">
<path d="M26.2434 0H3.6628C2.17248 0 0.953125 1.22317 0.953125 2.71815C0.953125 4.21313 2.17248 5.4363 3.6628 5.4363H26.2434C27.7338 5.4363 28.9531 4.21313 28.9531 2.71815C28.9531 1.22317 27.7338 0 26.2434 0Z" fill="black"/>
<path d="M26.2434 9.96783H3.6628C2.17248 9.96783 0.953125 11.191 0.953125 12.686C0.953125 14.181 2.17248 15.4041 3.6628 15.4041H26.2434C27.7338 15.4041 28.9531 14.181 28.9531 12.686C28.9531 11.191 27.7338 9.96783 26.2434 9.96783Z" fill="black"/>
<path d="M26.2434 19.9322H3.6628C2.17248 19.9322 0.953125 21.1554 0.953125 22.6505C0.953125 24.1455 2.17248 25.3687 3.6628 25.3687H26.2434C27.7338 25.3687 28.9531 24.1455 28.9531 22.6505C28.9531 21.1554 27.7338 19.9322 26.2434 19.9322Z" fill="black"/>
</svg>
