<svg width="30" height="30" viewBox="0 0 30 30" fill="none" xmlns="http://www.w3.org/2000/svg">
<circle cx="15" cy="15" r="15" fill="white"/>
<circle cx="15" cy="15" r="14.5" stroke="black" stroke-opacity="0.3"/>
<path d="M15.779 14.9997L19.2488 11.5299C19.4643 11.3145 19.4643 10.965 19.2488 10.7496C19.0332 10.534 18.6841 10.534 18.4685 10.7496L14.9988 14.2195L11.5288 10.7496C11.3133 10.534 10.9642 10.534 10.7486 10.7496C10.533 10.965 10.533 11.3145 10.7486 11.5299L14.2185 14.9997L10.7486 18.4696C10.533 18.685 10.533 19.0345 10.7486 19.2499C10.8564 19.3575 10.9976 19.4114 11.1387 19.4114C11.2798 19.4114 11.4211 19.3575 11.5288 19.2497L14.9988 15.7798L18.4685 19.2497C18.5763 19.3575 18.7176 19.4114 18.8586 19.4114C18.9997 19.4114 19.141 19.3575 19.2488 19.2497C19.4643 19.0343 19.4643 18.6848 19.2488 18.4695L15.779 14.9997Z" fill="#1C1C1C" fill-opacity="0.5"/>
</svg>
