<svg width="287" height="21" viewBox="0 0 287 21" fill="none" xmlns="http://www.w3.org/2000/svg">
<path d="M14.8 12.2V16.9H12V15H0V0H2.8V12.2H10V0.1H12.8V12.3H14.8V12.2Z" fill="black"/>
<path d="M20.0999 11.8008C20.5999 12.4008 21.2999 12.8008 22.0999 12.8008C22.8999 12.8008 23.6999 12.5008 24.1999 11.8008C24.2999 11.7008 24.2999 11.6008 24.3999 11.4008L27.1999 12.6008C26.9999 12.9008 26.7999 13.2008 26.4999 13.5008C25.3999 14.7008 23.7999 15.4008 22.0999 15.3008C20.3999 15.2008 18.7999 14.7008 17.7999 13.4008C16.7999 12.2008 16.3999 10.8008 16.3999 9.30078C16.3999 7.70078 16.7999 6.40078 17.7999 5.20078C18.7999 4.00078 20.3999 3.30078 22.0999 3.30078C23.7999 3.30078 25.3999 3.90078 26.3999 5.20078C27.2999 6.30078 27.7999 7.80078 27.7999 9.30078C27.7999 9.50078 27.7999 9.80078 27.7999 10.1008H19.4999C19.5999 10.8008 19.7999 11.3008 20.0999 11.8008ZM20.0999 7.10078C19.8999 7.40078 19.6999 7.70078 19.5999 8.00078H24.5999C24.5999 7.70078 24.3999 7.40078 24.1999 7.10078C23.6999 6.50078 22.9999 6.10078 22.0999 6.10078C21.2999 6.20078 20.5999 6.50078 20.0999 7.10078Z" fill="black"/>
<path d="M40.4 3.80078V15.0008H37.6V10.7008H33V15.1008H30.2V3.80078H33V7.80078H37.6V3.80078H40.4Z" fill="black"/>
<path d="M46.2 3.80078V7.40078H48.4C49.4 7.40078 50.4 7.70078 51.2 8.40078C51.9 9.10078 52.3 10.2008 52.3 11.2008C52.3 12.2008 51.9 13.3008 51.2 14.0008C50.4 14.7008 49.4 15.0008 48.4 15.0008H43.3V3.80078H46.2ZM46.2 12.4008H48.3C48.6 12.4008 48.9 12.3008 49.1 12.0008C49.3 11.8008 49.4 11.5008 49.4 11.2008C49.4 10.9008 49.3 10.6008 49.1 10.4008C48.9 10.2008 48.6 10.0008 48.3 10.0008H46.2V12.4008ZM56.3 3.80078V15.0008H53.5V3.80078H56.3Z" fill="black"/>
<path d="M73.7 3.80078V15.0008H70.9V10.7008H66.3V15.1008H63.5V3.80078H66.3V7.80078H70.9V3.80078H73.7Z" fill="black"/>
<path d="M76.2999 5.89961C76.3999 5.79961 76.4999 5.69961 76.5999 5.59961C77.5999 4.19961 79.1999 3.59961 80.9999 3.59961C83.0999 3.59961 84.6999 4.29961 85.5999 5.79961C85.9999 6.49961 86.1999 7.39961 86.1999 7.99961V15.0996H83.6999V13.1996C83.4999 13.7996 82.7999 14.3996 82.2999 14.6996C81.4999 15.1996 80.4999 15.3996 79.6999 15.3996C78.5999 15.3996 77.4999 14.8996 76.7999 14.1996C76.1999 13.3996 75.8999 12.7996 75.8999 11.7996C75.8999 10.5996 76.6999 9.39961 77.6999 8.79961C78.8999 8.09961 79.7999 8.09961 81.3999 7.89961L83.1999 7.69961C83.0999 7.29961 82.7999 6.89961 82.3999 6.69961C81.8999 6.39961 81.3999 6.29961 80.7999 6.29961C80.0999 6.29961 79.4999 6.49961 78.9999 6.99961C78.8999 7.09961 78.7999 7.19961 78.7999 7.29961L76.2999 5.89961ZM81.2999 10.1996C80.0999 10.3996 78.7999 10.6996 78.7999 11.5996C78.7999 12.2996 79.3999 12.7996 80.2999 12.7996C81.4999 12.7996 82.8999 12.1996 83.2999 10.7996C83.3999 10.2996 83.3999 9.89961 83.3999 9.79961L81.2999 10.1996Z" fill="black"/>
<path d="M102.1 6.29922C102.9 7.29922 103.4 8.69922 103.4 9.99922C103.5 11.4992 102.9 12.8992 101.9 13.8992C100.8 14.8992 99.4001 15.3992 97.9001 15.3992C96.4001 15.3992 94.9001 14.7992 94.0001 13.6992C93.0001 12.5992 92.7001 11.2992 92.6001 9.89922C92.5001 8.59922 92.5001 7.09922 92.8001 5.59922C93.0001 3.89922 93.8001 2.29922 95.2001 1.29922C96.5001 0.399219 98.3001 0.199219 100 0.199219C101 0.199219 101.8 0.299219 102.5 0.399219V2.99922C101.6 2.79922 100.6 2.69922 99.9001 2.69922C98.7001 2.69922 97.4001 2.69922 96.6001 3.19922C95.7001 3.79922 95.5001 4.79922 95.4001 5.69922C96.2001 4.99922 97.2001 4.59922 98.2001 4.59922C99.8001 4.59922 101.2 5.19922 102.1 6.29922ZM96.1001 7.89922C95.7001 8.39922 95.5001 9.09922 95.5001 9.89922C95.5001 10.6992 95.6001 11.3992 96.1001 11.8992C96.5001 12.3992 97.2001 12.6992 98.0001 12.6992C98.7001 12.6992 99.4001 12.4992 99.8001 11.8992C100.2 11.3992 100.4 10.6992 100.4 9.89922C100.4 9.19922 100.2 8.39922 99.8001 7.89922C99.4001 7.39922 98.7001 7.09922 98.0001 7.09922C97.2001 7.09922 96.5001 7.29922 96.1001 7.89922Z" fill="black"/>
<path d="M115.5 3.80078L110.7 16.6008C110.3 17.8008 109.7 18.8008 108.9 19.4008C108.1 20.0008 107.2 20.1008 106.2 20.1008H106.1V17.4008H106.4C106.7 17.4008 107.3 17.4008 107.5 17.3008C107.8 17.1008 108.2 16.4008 108.6 15.4008L104.3 3.80078H107.1L109.9 11.8008L112.8 3.80078H115.5Z" fill="black"/>
<path d="M124 9.40078L127.7 15.0008H124.5L121.5 10.5008H120V15.0008H117.1V3.80078H120V8.30078H121.5L124.3 3.80078H127.4L124 9.40078Z" fill="black"/>
<path d="M131.8 11.8008C132.3 12.4008 133 12.8008 133.8 12.8008C134.6 12.8008 135.4 12.5008 135.9 11.8008C136 11.7008 136 11.6008 136.1 11.4008L138.9 12.6008C138.7 12.9008 138.5 13.2008 138.2 13.5008C137.1 14.7008 135.5 15.4008 133.8 15.3008C132.1 15.2008 130.5 14.7008 129.5 13.4008C128.5 12.2008 128.1 10.8008 128.1 9.30078C128.1 7.70078 128.5 6.40078 129.5 5.20078C130.5 4.00078 132.1 3.30078 133.8 3.30078C135.5 3.30078 137.1 3.90078 138.1 5.20078C139 6.30078 139.5 7.80078 139.5 9.30078C139.5 9.50078 139.5 9.80078 139.5 10.1008H131.2C131.3 10.8008 131.4 11.3008 131.8 11.8008ZM131.8 7.10078C131.6 7.40078 131.4 7.70078 131.3 8.00078H136.3C136.2 7.70078 136.1 7.40078 135.9 7.10078C135.4 6.50078 134.7 6.10078 133.8 6.10078C133 6.20078 132.2 6.50078 131.8 7.10078Z" fill="black"/>
<path d="M151.1 6.30078H147.4V15.0008H144.6V6.30078H140.9V3.80078H151.1V6.30078Z" fill="black"/>
<path d="M155.9 3.80078V7.40078H158.1C159.1 7.40078 160.1 7.70078 160.9 8.40078C161.7 9.10078 162 10.2008 162 11.2008C162 12.2008 161.6 13.3008 160.9 14.0008C160.2 14.7008 159.1 15.0008 158.1 15.0008H153V3.80078H155.9ZM155.9 12.4008H158C158.3 12.4008 158.6 12.3008 158.8 12.0008C159 11.8008 159.1 11.5008 159.1 11.2008C159.1 10.9008 159 10.6008 158.8 10.4008C158.6 10.2008 158.3 10.0008 158 10.0008H155.9V12.4008ZM166 3.80078V15.0008H163.2V3.80078H166Z" fill="black"/>
<path d="M183.5 15.1008H180.6V8.30078L175.6 15.1008H173.1V3.80078H176V10.3008L181 3.80078H183.5V15.1008Z" fill="black"/>
<path d="M200.3 12.4008H201.2V16.4008H198.6V15.1008H192.2V16.4008H189.5V12.4008C190.7 12.4008 191.4 11.1008 191.7 8.50078L192.2 3.80078H200.3V12.4008ZM197.7 6.30078H194.6L194.3 8.80078C194.1 10.3008 193.8 11.6008 193.3 12.3008H197.7V6.30078Z" fill="black"/>
<path d="M204.5 13.5004C203.5 12.3004 203.1 11.0004 203.1 9.40039C203.1 7.80039 203.6 6.40039 204.5 5.30039C205.5 4.10039 207.2 3.40039 208.8 3.40039C210.5 3.40039 212.1 4.00039 213.1 5.30039C214.1 6.50039 214.5 7.80039 214.5 9.40039C214.5 11.0004 214.1 12.3004 213.1 13.5004C212 14.7004 210.5 15.4004 208.8 15.4004C207.2 15.4004 205.6 14.7004 204.5 13.5004ZM211.6 9.50039C211.6 8.60039 211.4 7.80039 211 7.10039C210.5 6.50039 209.8 6.20039 208.9 6.20039C208 6.20039 207.3 6.50039 206.8 7.10039C206.3 7.70039 206.2 8.60039 206.2 9.50039C206.2 10.4004 206.3 11.2004 206.8 11.8004C207.3 12.4004 208 12.8004 208.9 12.8004C209.8 12.8004 210.5 12.5004 211 11.8004C211.4 11.2004 211.6 10.3004 211.6 9.50039Z" fill="black"/>
<path d="M224.2 7.50078C224.1 7.40078 224.1 7.20078 224 7.10078C223.5 6.50078 222.8 6.10078 221.9 6.10078C221.1 6.10078 220.3 6.40078 219.9 7.10078C219.4 7.70078 219.3 8.60078 219.3 9.40078C219.3 10.3008 219.5 11.1008 219.9 11.7008C220.4 12.3008 221.1 12.6008 221.9 12.6008C222.7 12.6008 223.5 12.3008 224 11.7008C224.1 11.6008 224.1 11.5008 224.2 11.3008L226.9 12.4008C226.7 12.7008 226.5 13.0008 226.3 13.3008C225.3 14.5008 223.6 15.2008 222 15.2008C220.4 15.2008 218.8 14.6008 217.7 13.3008C216.8 12.2008 216.3 10.8008 216.3 9.30078C216.3 7.80078 216.7 6.40078 217.7 5.20078C218.8 3.90078 220.4 3.30078 222 3.30078C223.7 3.30078 225.3 3.90078 226.3 5.20078C226.5 5.50078 226.8 5.80078 226.9 6.20078L224.2 7.50078Z" fill="black"/>
<path d="M238.3 6.30078H234.6V15.0008H231.8V6.30078H228.1V3.80078H238.3V6.30078Z" fill="black"/>
<path d="M239.6 5.89961C239.7 5.79961 239.7 5.69961 239.8 5.59961C240.8 4.19961 242.4 3.59961 244.2 3.59961C246.3 3.59961 247.9 4.29961 248.8 5.79961C249.2 6.49961 249.4 7.39961 249.4 7.99961V15.0996H246.9V13.1996C246.7 13.7996 246 14.3996 245.5 14.6996C244.7 15.1996 243.7 15.3996 242.9 15.3996C241.8 15.3996 240.7 14.8996 240 14.1996C239.4 13.3996 239.1 12.7996 239.1 11.7996C239.1 10.5996 239.9 9.39961 240.9 8.79961C242.1 8.09961 243 8.09961 244.6 7.89961L246.4 7.69961C246.3 7.29961 246 6.89961 245.6 6.69961C245.1 6.39961 244.6 6.29961 244 6.29961C243.3 6.29961 242.7 6.49961 242.2 6.99961C242.1 7.09961 242 7.19961 242 7.29961L239.6 5.89961ZM244.6 10.1996C243.4 10.3996 242.1 10.6996 242.1 11.5996C242.1 12.2996 242.7 12.7996 243.6 12.7996C244.8 12.7996 246.2 12.1996 246.6 10.7996C246.7 10.2996 246.7 9.89961 246.7 9.79961L244.6 10.1996Z" fill="black"/>
<path d="M257.8 3.80078C258.8 3.80078 259.7 4.00078 260.4 4.60078C261.2 5.20078 261.7 6.10078 261.7 7.20078C261.7 7.70078 261.6 8.20078 261.4 8.70078C261.3 8.90078 261.2 9.00078 261.1 9.20078C261.5 9.50078 261.8 9.90078 262 10.3008C262.2 10.7008 262.4 11.3008 262.4 11.8008C262.4 12.8008 261.9 13.8008 261.1 14.4008C260.6 14.8008 259.7 15.1008 259.1 15.1008H252.3V3.90078L257.8 3.80078ZM255 8.40078H257.8C258.2 8.40078 258.5 8.30078 258.7 7.90078C258.8 7.70078 258.9 7.40078 258.9 7.20078C258.9 7.00078 258.9 6.70078 258.7 6.50078C258.5 6.10078 258.2 6.00078 257.8 6.00078H255V8.40078ZM255 12.9008H258.4C258.8 12.9008 259 12.8008 259.3 12.4008C259.4 12.2008 259.5 11.9008 259.5 11.7008C259.5 11.5008 259.5 11.2008 259.3 11.0008C259.1 10.7008 258.9 10.5008 258.4 10.5008H255V12.9008Z" fill="black"/>
<path d="M271.4 9.40078L275.1 15.0008H271.9L268.9 10.5008H267.4V15.0008H264.6V3.80078H267.5V8.30078H269L271.8 3.80078H274.9L271.4 9.40078Z" fill="black"/>
<path d="M286.8 3.80078L282 16.6008C281.6 17.8008 281 18.8008 280.2 19.4008C279.4 20.0008 278.5 20.1008 277.5 20.1008H277.4V17.4008H277.7C278 17.4008 278.6 17.4008 278.8 17.3008C279.1 17.1008 279.5 16.4008 279.9 15.4008L275.6 3.80078H278.4L281.2 11.8008L284.1 3.80078H286.8Z" fill="black"/>
</svg>
