<svg width="39" height="22" viewBox="0 0 39 22" fill="none" xmlns="http://www.w3.org/2000/svg">
<path d="M38.1531 18.8576C38.0511 18.6996 37.4203 17.4311 34.3847 14.824C31.2067 12.094 31.6336 12.5373 35.4614 7.81674C37.7926 4.94186 38.7246 3.18621 38.4329 2.43566C38.1555 1.72023 36.4408 1.90897 36.4408 1.90897L30.7395 1.93969C30.7395 1.93969 30.3174 1.88702 30.002 2.06039C29.696 2.23157 29.4992 2.62659 29.4992 2.62659C29.4992 2.62659 28.5956 4.85188 27.3909 6.7436C24.8509 10.7355 23.8335 10.9462 23.4185 10.6982C22.4533 10.121 22.6952 8.37636 22.6952 7.13862C22.6952 3.2696 23.3284 1.65659 21.4596 1.23962C20.8382 1.10137 20.3829 1.00919 18.7963 0.993833C16.7615 0.974082 15.0373 1.00042 14.0626 1.44152C13.4128 1.7356 12.9124 2.39177 13.2183 2.42908C13.5954 2.47517 14.4492 2.64195 14.9021 3.21254C15.4879 3.94772 15.4666 5.60242 15.4666 5.60242C15.4666 5.60242 15.8033 10.1562 14.6816 10.7224C13.9108 11.1108 12.8555 10.3186 10.5906 6.69532C9.43092 4.84091 8.55343 2.78899 8.55343 2.78899C8.55343 2.78899 8.38505 2.40713 8.08386 2.20304C7.71864 1.95505 7.20638 1.87605 7.20638 1.87605L1.78495 1.90677C1.78495 1.90677 0.971498 1.92872 0.67268 2.25571C0.407063 2.54759 0.651335 3.1489 0.651335 3.1489C0.651335 3.1489 4.89646 12.3376 9.70128 16.9703C14.11 21.2168 19.1141 20.9381 19.1141 20.9381H21.3813C21.3813 20.9381 22.0667 20.8678 22.4153 20.5189C22.7378 20.1985 22.726 19.5972 22.726 19.5972C22.726 19.5972 22.6809 16.7816 24.0944 16.3668C25.4865 15.9586 27.2747 19.088 29.1696 20.2929C30.602 21.2036 31.6905 21.0039 31.6905 21.0039L36.7586 20.9381C36.7586 20.9381 39.41 20.7866 38.1531 18.8576Z" fill="black"/>
</svg>
