<svg width="239" height="33" viewBox="0 0 239 33" fill="none" xmlns="http://www.w3.org/2000/svg">
<path d="M17.875 6.62488L11.25 24.8749H6.625L0 6.62488H4.625L8.99999 19.2499L13.375 6.62488H17.875Z" fill="#75C700"/>
<path d="M25.5 0V4.125H20.875V0H25.5ZM25.5 6.625V24.875H20.875V6.625H25.5Z" fill="#75C700"/>
<path d="M48.375 15.7501C48.375 18.2501 47.75 20.6251 46.25 22.5001C44.75 24.375 42.375 25.3751 40 25.3751C38.25 25.3751 36.625 25.0001 35.25 24.1251V33H30.625V6.62506H34.625V7.75006C36 6.75006 37.75 6.12506 39.625 6.12506C42.125 6.12506 44.625 7.12506 46.125 9.00006C47.625 10.8751 48.375 13.2501 48.375 15.7501ZM43.5 15.7501C43.5 14.2501 43.125 12.7501 42.5 11.8751C41.75 10.6251 40.625 10.2501 39 10.2501C37.75 10.2501 36.625 10.6251 35.875 11.5001C35 12.5001 34.625 14.1251 34.625 15.7501C34.625 17.3751 35 19.0001 35.875 20.0001C36.625 20.8751 37.75 21.2501 39.125 21.2501C40.375 21.2501 41.75 20.7501 42.5 19.6251C43.25 18.7501 43.5 17.3751 43.5 15.7501Z" fill="#75C700"/>
<path d="M69.8745 15.7501C69.8745 18.2501 69.2495 20.625 67.7495 22.5C66.2495 24.375 63.8745 25.375 61.4995 25.375C59.4995 25.375 57.6245 24.875 56.2495 23.75V24.875H52.2495V0.500061H56.8745V7.37506C58.1245 6.62506 59.7495 6.12506 61.3745 6.12506C63.8745 6.12506 66.3745 7.12506 67.8745 9.00006C69.1245 10.8751 69.8745 13.2501 69.8745 15.7501ZM64.9995 15.7501C64.9995 14.2501 64.6245 12.7501 63.9995 11.8751C63.2495 10.6251 62.1245 10.2501 60.4995 10.2501C59.2495 10.2501 58.1245 10.6251 57.3745 11.5001C56.4995 12.5001 56.1245 14.1251 56.1245 15.7501C56.1245 17.3751 56.4995 19.0001 57.3745 20.0001C58.1245 20.8751 59.2495 21.25 60.6245 21.25C61.8745 21.25 63.2495 20.7501 63.9995 19.6251C64.7495 18.7501 64.9995 17.3751 64.9995 15.7501Z" fill="#75C700"/>
<path d="M74.8745 22.375C73.3745 20.5001 72.6245 18.2501 72.6245 15.7501C72.6245 13.1251 73.3745 10.8751 74.8745 9.12506C76.6245 7.12506 79.2495 6.12506 81.8745 6.12506C84.6245 6.12506 87.2495 7.12506 88.8745 9.12506C90.4995 11.0001 91.1245 13.2501 91.1245 15.7501C91.1245 18.3751 90.3745 20.3751 88.8745 22.375C87.1245 24.375 84.6245 25.375 81.8745 25.375C79.1245 25.375 76.4995 24.375 74.8745 22.375ZM86.2495 15.7501C86.2495 14.3751 85.9995 13.0001 85.2495 11.8751C84.4995 10.8751 83.2495 10.3751 81.8745 10.3751C80.4995 10.3751 79.2495 10.8751 78.4995 11.8751C77.7495 12.8751 77.4995 14.3751 77.4995 15.7501C77.4995 17.1251 77.7495 18.5001 78.4995 19.5001C79.2495 20.5 80.4995 21.0001 81.8745 21.0001C83.2495 21.0001 84.4995 20.5 85.2495 19.5001C85.9995 18.5001 86.2495 17.1251 86.2495 15.7501Z" fill="#75C700"/>
<path d="M111.249 6.62488V24.8749H107.125V23.6249C105.625 24.7499 103.875 25.3749 102.125 25.3749C100.125 25.4999 97.8745 24.6249 96.4995 23.3749C94.3745 21.3749 93.9995 18.9999 93.9995 15.7499V6.62488H98.6245V15.7499C98.6245 17.3749 98.8745 18.9999 99.8745 19.8749C100.5 20.4999 101.5 20.8749 102.75 20.8749C103.625 20.8749 104.25 20.6249 104.875 20.1249C105.5 19.6249 105.999 18.7499 106.249 17.7499C106.374 16.9999 106.5 15.6249 106.5 14.3749V6.62488H111.249Z" fill="#75C700"/>
<path d="M132.75 6.62506V33H128.125V24.1251C126.75 24.8751 125.125 25.3751 123.375 25.3751C121 25.3751 118.625 24.375 117.125 22.5001C115.625 20.6251 115 18.2501 115 15.7501C115 13.2501 115.75 10.7501 117.125 9.00006C118.625 7.12506 121.125 6.12506 123.625 6.12506C125.5 6.12506 127.25 6.75006 128.625 7.75006V6.62506H132.75ZM127.5 20.0001C128.375 19.0001 128.75 17.3751 128.75 15.7501C128.75 14.1251 128.375 12.5001 127.5 11.5001C126.75 10.6251 125.625 10.2501 124.375 10.2501C122.875 10.2501 121.625 10.6251 120.875 11.8751C120.25 12.8751 119.875 14.2501 119.875 15.7501C119.875 17.2501 120.125 18.7501 120.75 19.6251C121.5 20.7501 122.875 21.2501 124.125 21.2501C125.5 21.3751 126.625 20.8751 127.5 20.0001Z" fill="#75C700"/>
<path d="M154 6.62488V24.8749H149.875V23.6249C148.375 24.7499 146.625 25.3749 144.875 25.3749C142.875 25.4999 140.625 24.6249 139.25 23.3749C137.125 21.3749 136.75 18.9999 136.75 15.7499V6.62488H141.375V15.7499C141.375 17.3749 141.625 18.9999 142.625 19.8749C143.25 20.4999 144.25 20.8749 145.5 20.8749C146.375 20.8749 147 20.6249 147.625 20.1249C148.25 19.6249 148.75 18.7499 149 17.7499C149.125 16.9999 149.25 15.6249 149.25 14.3749V6.62488H154Z" fill="#75C700"/>
<path d="M163.625 19.5001C164.375 20.5001 165.625 21.0001 167 21.0001C168.375 21.0001 169.625 20.5001 170.375 19.5001C170.5 19.2501 170.625 19.1251 170.75 18.8751L175.375 20.8751C175.125 21.3751 174.75 21.8751 174.25 22.3751C172.375 24.3751 169.75 25.5001 167.125 25.3751C164.375 25.2501 161.75 24.3751 160.125 22.3751C158.625 20.5001 157.875 18.1251 157.875 15.7501C158 13.2501 158.625 11.0001 160.125 9.12506C161.875 7.12506 164.375 6.12506 167.125 6.12506C169.875 6.12506 172.5 7.12506 174.125 9.12506C175.625 11.0001 176.375 13.2501 176.375 15.7501C176.375 16.1251 176.375 16.6251 176.25 17.0001H162.75C162.875 18.0001 163.125 18.8751 163.625 19.5001ZM163.625 12.0001C163.25 12.5001 163 13.0001 162.875 13.5001H171C170.875 13.0001 170.625 12.5001 170.25 12.0001C169.5 11.0001 168.25 10.5001 166.875 10.5001C165.625 10.3751 164.375 10.8751 163.625 12.0001Z" fill="#75C700"/>
<path d="M186.249 10.125V16.75C186.249 18.125 186.25 19.25 186.75 19.875C187.25 20.5 187.875 20.875 188.625 21C189.5 21.125 190.624 21 191.624 20.875V24.875C190.124 25.25 187.624 25.375 186.249 25C184.624 24.5 183.25 23.75 182.625 22.375C181.875 20.875 181.75 19.125 181.75 17.125V10.125H178V6.625H181.75V1.5H186.375V6.625H191.624V10.125H186.249Z" fill="#75C700"/>
<path d="M201 20.25V24.875H196.375V20.25H201Z" fill="#75C700"/>
<path d="M218.75 6.62506V10.8751C217.75 10.5001 216.5 10.2501 215.25 10.3751C213.875 10.5001 213 11.0001 212.375 11.6251C211.625 12.5001 211.25 13.7501 211.25 15.1251V24.875H206.625V6.62506H210.625V9.12506C211.125 8.25006 211.75 7.62506 212.625 7.12506C213.625 6.50006 214.75 6.25006 215.75 6.12506C216.625 6.12506 217.75 6.25006 218.75 6.62506Z" fill="#75C700"/>
<path d="M238.374 6.62488V24.8749H234.25V23.6249C232.75 24.7499 231 25.3749 229.25 25.3749C227.25 25.4999 225 24.6249 223.625 23.3749C221.5 21.3749 221.125 18.9999 221.125 15.7499V6.62488H225.75V15.7499C225.75 17.3749 226 18.9999 227 19.8749C227.625 20.4999 228.625 20.8749 229.875 20.8749C230.75 20.8749 231.375 20.6249 232 20.1249C232.625 19.6249 233.124 18.7499 233.374 17.7499C233.499 16.9999 233.625 15.6249 233.625 14.3749V6.62488H238.374Z" fill="#75C700"/>
</svg>
