<svg width="28" height="28" viewBox="0 0 28 28" fill="none" xmlns="http://www.w3.org/2000/svg">
<path d="M22.0297 28.0008H21.9056C21.7815 28.0008 8.93601 27.9338 6.32967 27.9338C3.47511 27.9338 1.98578 24.5136 1.55139 22.5017V22.3676L0 8.61977H6.45378C6.45378 8.15033 6.45378 7.07733 6.51584 4.93133C6.702 1.64527 9.30834 0.639328 10.7356 0.572266H10.7977H10.8597C10.9218 0.572266 14.2728 0.639328 17.1894 0.639328C20.2922 0.639328 21.4092 3.12064 21.4092 4.73014V8.68683H27.4286L27.3665 10.0951C27.3665 10.1622 26.9942 18.0085 26.746 22.0323C26.4977 26.056 23.7052 27.6655 22.278 27.9338L22.0297 28.0008ZM3.97156 21.9652C4.15773 22.9041 5.0265 25.2513 6.32967 25.2513C8.81189 25.2513 20.3542 25.3183 21.7815 25.3183C22.278 25.1842 24.0155 24.5136 24.2017 21.8981C24.3878 18.9474 24.6361 13.8506 24.7602 11.4364H18.8649V4.7972C18.8649 4.2607 18.6167 3.38889 17.1273 3.38889C14.3969 3.38889 11.2941 3.32183 10.7977 3.32183C10.4253 3.38889 9.06012 3.59008 8.99806 5.13252C8.87395 7.4797 8.87395 8.41858 8.93601 8.68683H13.7763V11.3693H2.73045L3.97156 21.9652Z" fill="#0057FE"/>
</svg>
