<svg width="24" height="20" viewBox="0 0 24 20" fill="none" xmlns="http://www.w3.org/2000/svg">
<path d="M21.0947 13.0598L23.932 4.32415C24.0743 3.9042 23.9666 3.65174 23.8517 3.48505C23.5576 3.05862 22.9527 3.05458 22.8355 3.05458L6.80085 3.05134L6.37295 0.9629C6.25732 0.470122 5.91594 0 5.22767 0H0.721302C0.254068 0 0 0.224946 0 0.67403V1.87968C0 2.3142 0.253282 2.42748 0.737821 2.42748H4.54255L7.45451 15.145C6.99199 15.6491 6.74028 16.3839 6.74028 17.0692C6.74028 18.5775 7.90758 19.9676 9.39895 19.9676C10.8069 19.9676 11.8626 18.6107 12.034 17.8015H17.7053C17.8768 18.6107 18.7318 20 20.3396 20C21.805 20 22.9967 18.694 22.9967 17.1882C22.9967 15.6904 22.1118 14.3626 20.3546 14.3626C19.6238 14.3626 18.757 14.7672 18.3543 15.374H11.3859C10.8801 14.5649 10.1895 14.314 9.49098 14.2857L9.39423 13.7557H19.9967C20.7958 13.7557 20.9532 13.4563 21.0947 13.0598ZM20.3593 16.1274C20.9107 16.1274 21.3583 16.5878 21.3583 17.155C21.3583 17.7222 20.9107 18.1826 20.3593 18.1826C19.8079 18.1826 19.3595 17.723 19.3595 17.155C19.3603 16.5878 19.8079 16.1274 20.3593 16.1274ZM10.3869 17.155C10.3869 17.7287 9.93383 18.1956 9.37772 18.1956C8.82002 18.194 8.36616 17.7287 8.36616 17.155C8.36616 16.5813 8.82002 16.1144 9.37772 16.1144C9.93383 16.1144 10.3869 16.5813 10.3869 17.155Z" fill="#292929"/>
</svg>
