<svg width="40" height="40" viewBox="0 0 40 40" fill="none" xmlns="http://www.w3.org/2000/svg">
<path d="M37.1171 33.5528C37.1171 34.6425 36.663 35.6413 35.9366 36.3678C35.2101 37.0942 34.2113 37.5482 33.1216 37.5482H27.083V40H33.167C34.9377 39.9546 36.5268 39.2281 37.7073 38.0477C38.8878 36.8672 39.5688 35.2781 39.5688 33.5074V27.0602H37.1171V33.5528Z" fill="black"/>
<path d="M39.5688 6.40181C39.5688 4.6311 38.8424 3.042 37.7073 1.86152C36.5268 0.681044 34.9377 0 33.167 0H27.083V2.45176H33.167C34.2567 2.45176 35.2555 2.90579 35.982 3.63223C36.7084 4.35868 37.1625 5.35754 37.1625 6.44721V12.9398H39.6142V6.40181H39.5688Z" fill="black"/>
<path d="M4.01822 36.3224C3.29178 35.5959 2.83775 34.597 2.83775 33.5074V27.0602H0.385986V33.5528C0.385986 35.3235 1.11243 36.9126 2.24751 38.0931C3.47339 39.2281 5.06249 39.9546 6.83321 39.9546H12.9172V37.5028H6.83321C5.74353 37.5028 4.74467 37.0488 4.01822 36.3224Z" fill="black"/>
<path d="M2.88316 6.40182C2.88316 5.31215 3.33719 4.31328 4.06363 3.58683C4.79008 2.86039 5.78894 2.40636 6.87862 2.40636H12.9626V0H6.83321C5.0625 0 3.47339 0.726447 2.29292 1.86152C1.11244 3.042 0.431396 4.6311 0.431396 6.40182V12.8944H2.88316V6.40182Z" fill="black"/>
<path d="M28.5359 30.3292C29.217 30.3292 29.7618 29.7843 29.7618 29.1033C29.7618 26.4245 28.6721 23.9728 26.9014 22.202C26.0842 21.3848 25.0853 20.7037 24.041 20.2497C24.1318 20.1589 24.2226 20.1135 24.3135 20.0227C25.4031 18.933 26.0842 17.3893 26.0842 15.7094C26.0842 14.0295 25.4031 12.4858 24.3135 11.3961C23.2238 10.3065 21.6801 9.62543 20.0002 9.62543C18.3203 9.62543 16.7766 10.3065 15.6869 11.3961C14.5972 12.4858 13.9162 14.0295 13.9162 15.7094C13.9162 17.3893 14.5972 18.933 15.6869 20.0227C15.7777 20.1135 15.8685 20.1589 15.9593 20.2497C14.8696 20.7491 13.9162 21.3848 13.0989 22.202C11.3282 23.9728 10.2385 26.4245 10.2385 29.1033C10.2385 29.7843 10.7834 30.3292 11.4644 30.3292C12.1455 30.3292 12.6903 29.7843 12.6903 29.1033C12.6903 27.1056 13.5075 25.244 14.8242 23.9274C16.1409 22.6107 18.0024 21.7934 20.0002 21.7934C21.9979 21.7934 23.8594 22.6107 25.1761 23.9274C26.4928 25.244 27.3101 27.0602 27.3101 29.1033C27.3101 29.7843 27.8549 30.3292 28.5359 30.3292ZM22.5881 18.2974C21.9071 18.9784 20.999 19.3871 20.0002 19.3871C19.0013 19.3871 18.0932 18.9784 17.4122 18.2974C16.7312 17.6163 16.3225 16.7083 16.3225 15.7094C16.3225 14.7106 16.7312 13.8025 17.4122 13.1215C18.0932 12.4404 19.0013 12.0318 20.0002 12.0318C20.999 12.0318 21.9071 12.4404 22.5881 13.1215C23.2692 13.8025 23.6778 14.7106 23.6778 15.7094C23.6778 16.7083 23.2692 17.6163 22.5881 18.2974Z" fill="black"/>
</svg>
