<svg width="45" height="33" viewBox="0 0 45 33" fill="none" xmlns="http://www.w3.org/2000/svg">
<path d="M33.9862 20.7542C30.8585 20.7542 28.314 23.2987 28.314 26.4265C28.314 29.5542 30.8585 32.0987 33.9862 32.0987C37.1145 32.0987 39.6585 29.5542 39.6585 26.4265C39.6585 23.2987 37.114 20.7542 33.9862 20.7542ZM33.9862 29.2626C32.4221 29.2626 31.1501 27.9906 31.1501 26.4265C31.1501 24.8624 32.4221 23.5903 33.9862 23.5903C35.5504 23.5903 36.8224 24.8624 36.8224 26.4265C36.8224 27.9906 35.5504 29.2626 33.9862 29.2626Z" fill="black"/>
<path d="M14.6061 20.7542C11.4784 20.7542 8.93384 23.2987 8.93384 26.4265C8.93384 29.5542 11.4784 32.0987 14.6061 32.0987C17.7339 32.0987 20.2784 29.5542 20.2784 26.4265C20.2784 23.2987 17.7339 20.7542 14.6061 20.7542ZM14.6061 29.2626C13.042 29.2626 11.77 27.9906 11.77 26.4265C11.77 24.8624 13.042 23.5903 14.6061 23.5903C16.1698 23.5903 17.4423 24.8624 17.4423 26.4265C17.4423 27.9906 16.1702 29.2626 14.6061 29.2626Z" fill="black"/>
<path d="M37.8061 4.51831C37.565 4.03948 37.0749 3.7374 36.5388 3.7374H29.0703V6.57355H35.6643L39.5257 14.2538L42.0603 12.9794L37.8061 4.51831Z" fill="black"/>
<path d="M29.732 25.0557H19.002V27.8919H29.732V25.0557Z" fill="black"/>
<path d="M10.352 25.0557H5.43609C4.65281 25.0557 4.01807 25.6905 4.01807 26.4737C4.01807 27.257 4.6529 27.8918 5.43609 27.8918H10.3521C11.1354 27.8918 11.7701 27.2569 11.7701 26.4737C11.7701 25.6905 11.1353 25.0557 10.352 25.0557Z" fill="black"/>
<path d="M44.7024 16.3865L41.9131 12.7941C41.6451 12.4481 41.2315 12.2457 40.7933 12.2457H30.4886V2.31929C30.4886 1.53601 29.8538 0.90126 29.0706 0.90126H5.43609C4.65281 0.90126 4.01807 1.53609 4.01807 2.31929C4.01807 3.10248 4.6529 3.73732 5.43609 3.73732H27.6525V13.6638C27.6525 14.4471 28.2873 15.0818 29.0705 15.0818H40.0988L42.164 17.7421V25.0555H38.2407C37.4574 25.0555 36.8226 25.6904 36.8226 26.4736C36.8226 27.2568 37.4575 27.8916 38.2407 27.8916H43.582C44.3653 27.8916 45.0001 27.2568 45.0002 26.4736V17.2563C45.0002 16.9415 44.8952 16.6352 44.7024 16.3865Z" fill="black"/>
<path d="M10.2573 17.8708H3.73419C2.95091 17.8708 2.31616 18.5057 2.31616 19.2889C2.31616 20.0721 2.951 20.7069 3.73419 20.7069H10.2573C11.0405 20.7069 11.6753 20.0721 11.6753 19.2889C11.6754 18.5057 11.0405 17.8708 10.2573 17.8708Z" fill="black"/>
<path d="M13.5189 12.293H1.41803C0.634834 12.293 0 12.9279 0 13.7111C0 14.4944 0.634834 15.1292 1.41803 15.1292H13.5189C14.3022 15.1292 14.9369 14.4943 14.9369 13.7111C14.9369 12.928 14.3022 12.293 13.5189 12.293Z" fill="black"/>
<path d="M15.8351 6.71531H3.73419C2.95091 6.71531 2.31616 7.35014 2.31616 8.13334C2.31616 8.91662 2.951 9.55136 3.73419 9.55136H15.8351C16.6183 9.55136 17.2531 8.91653 17.2531 8.13334C17.2532 7.35014 16.6183 6.71531 15.8351 6.71531Z" fill="black"/>
</svg>
