<svg width="30" height="30" viewBox="0 0 30 30" fill="none" xmlns="http://www.w3.org/2000/svg">
<path d="M25.6061 4.39394C22.7715 1.55934 19.0088 0 15 0C10.9912 0 7.22854 1.55934 4.39394 4.39394C1.55934 7.22854 0 10.9912 0 15C0 19.0088 1.55934 22.7715 4.39394 25.6061C7.22854 28.4407 10.9912 30 15 30C19.0088 30 22.7715 28.4407 25.6061 25.6061C28.4407 22.7715 30 19.0088 30 15C30 10.9912 28.4407 7.22854 25.6061 4.39394ZM24.4003 24.4003C21.8876 26.9129 18.548 28.2955 15 28.2955C11.452 28.2955 8.11237 26.9129 5.59975 24.4003C0.416667 19.2172 0.416667 10.7828 5.59975 5.59975C8.11237 3.08712 11.452 1.70455 15 1.70455C18.548 1.70455 21.8876 3.08712 24.4003 5.59975C29.5833 10.7828 29.5833 19.2172 24.4003 24.4003Z" fill="#505050"/>
<path d="M21.61 8.39029C21.2754 8.05569 20.7388 8.05569 20.4042 8.39029L15.0002 13.7943L9.59616 8.39029C9.26156 8.05569 8.72495 8.05569 8.39035 8.39029C8.05576 8.72488 8.05576 9.2615 8.39035 9.59609L13.7944 15.0001L8.39035 20.4041C8.05576 20.7387 8.05576 21.2753 8.39035 21.6099C8.55449 21.7741 8.77545 21.8624 8.9901 21.8624C9.20474 21.8624 9.4257 21.7804 9.58984 21.6099L14.9939 16.2059L20.3979 21.6099C20.562 21.7741 20.783 21.8624 20.9976 21.8624C21.2186 21.8624 21.4332 21.7804 21.5974 21.6099C21.932 21.2753 21.932 20.7387 21.5974 20.4041L16.206 15.0001L21.61 9.59609C21.9446 9.2615 21.9446 8.72488 21.61 8.39029Z" fill="#505050"/>
</svg>
