<svg width="50" height="25" viewBox="0 0 50 25" fill="none" xmlns="http://www.w3.org/2000/svg">
<path fill-rule="evenodd" clip-rule="evenodd" d="M1.94459 1.2371C1.33998 1.22736 0.870016 1.7513 0.938232 2.35213L2.91815 19.7906C2.97469 20.2885 3.3894 20.6675 3.89044 20.676C5.17838 20.6977 7.76955 20.7367 10.8448 20.7571L11.1843 23.9533C11.2374 24.4538 11.6494 24.8365 12.1527 24.8455C15.0106 24.8968 24.2458 25.036 30.5513 24.8288C36.8322 24.6225 45.8983 23.8718 48.854 23.6176C49.397 23.5709 49.7944 23.0974 49.7559 22.5538L48.5205 5.1085C48.481 4.55023 47.9967 4.13225 47.439 4.18023C46.4977 4.26123 44.9612 4.39049 43.1009 4.53606L42.8277 0.926782C42.7858 0.372843 42.3073 -0.041611 41.7536 0.00305226C38.6458 0.253727 28.9433 1.00753 22.1484 1.21752C15.4081 1.42583 5.30835 1.29125 1.94459 1.2371Z" fill="#F12626"/>
</svg>
