<svg width="25" height="22" viewBox="0 0 25 22" fill="none" xmlns="http://www.w3.org/2000/svg">
<path d="M21.9737 14.0173L24.9291 4.91765C25.0774 4.4802 24.9652 4.21722 24.8456 4.04359C24.5391 3.5994 23.909 3.59518 23.7869 3.59518L7.08422 3.59181L6.63848 1.41635C6.51804 0.90304 6.16243 0.41333 5.44549 0.41333H0.751356C0.264654 0.41333 0 0.647649 0 1.11544V2.37133C0 2.82395 0.263835 2.94195 0.768563 2.94195H4.73183L7.76511 16.1894C7.28332 16.7145 7.02113 17.4799 7.02113 18.1938C7.02113 19.7649 8.23706 21.2129 9.79058 21.2129C11.2572 21.2129 12.3568 19.7994 12.5354 18.9566H18.4431C18.6217 19.7994 19.5123 21.2467 21.1871 21.2467C22.7136 21.2467 23.9549 19.8863 23.9549 18.3177C23.9549 16.7575 23.0331 15.3744 21.2027 15.3744C20.4415 15.3744 19.5385 15.7958 19.119 16.4279H11.8603C11.3334 15.5851 10.614 15.3238 9.88644 15.2943L9.78566 14.7422H20.8299C21.6623 14.7422 21.8262 14.4303 21.9737 14.0173ZM21.2076 17.2127C21.782 17.2127 22.2482 17.6923 22.2482 18.2831C22.2482 18.874 21.782 19.3536 21.2076 19.3536C20.6332 19.3536 20.1662 18.8748 20.1662 18.2831C20.167 17.6923 20.6332 17.2127 21.2076 17.2127ZM10.8197 18.2831C10.8197 18.8807 10.3477 19.3671 9.76845 19.3671C9.18752 19.3654 8.71475 18.8807 8.71475 18.2831C8.71475 17.6855 9.18752 17.1992 9.76845 17.1992C10.3477 17.1992 10.8197 17.6855 10.8197 18.2831Z" fill="white"/>
</svg>
