<svg width="29" height="38" viewBox="0 0 29 38" fill="none" xmlns="http://www.w3.org/2000/svg">
<path d="M19.9843 21.7359C19.8742 21.672 17.2503 20.293 14.6828 21.228C14.2214 21.3959 13.8055 21.646 13.4126 21.9368L15.2817 17.9285C17.8322 19.1178 20.8755 18.0102 22.0648 15.4597L24.7636 9.67205C24.9258 9.32418 25.226 9.04933 25.5866 8.91815L26.6729 8.52276C26.9681 8.4153 27.161 8.1313 27.1525 7.8177C27.1437 7.50477 26.9376 7.22721 26.6351 7.13956L24.6202 6.52877L25.0573 5.59146C25.2276 5.22618 25.0698 4.79276 24.7046 4.62242C23.4536 4.0391 22.137 3.67738 20.8771 3.5529C20.0754 2.72683 19.1428 2.02891 18.0961 1.54085C17.7308 1.37051 17.2974 1.52827 17.1271 1.89355L16.69 2.8308L14.9269 1.68001C14.665 1.50526 14.3203 1.5252 14.0748 1.71956C13.8292 1.91454 13.7356 2.24494 13.843 2.54019L14.2385 3.62647C14.3697 3.98703 14.3522 4.39368 14.19 4.7415L11.4912 10.5291C10.3019 13.0796 11.4095 16.1229 13.96 17.3122L6.25603 33.8335C6.08569 34.1987 6.24344 34.6322 6.60873 34.8025C6.97401 34.9728 7.40743 34.8151 7.57777 34.4498L11.5901 25.8452C11.7433 25.9273 11.8953 26.0039 12.0472 26.0747C13.6626 26.828 15.1859 26.953 16.5817 26.4449C19.1486 25.5112 20.2699 22.7647 20.3164 22.6482C20.4541 22.3039 20.3111 21.9111 19.9843 21.7359ZM23.4175 5.65727L23.196 6.13228C23.0098 6.08889 22.8246 6.04196 22.6355 6.01098L22.4498 5.66334C22.3772 5.52767 22.2794 5.40808 22.2003 5.27629C22.6066 5.38216 23.0141 5.49939 23.4175 5.65727ZM23.3215 7.65927L24.3266 7.96375C23.9499 8.24925 23.6429 8.62463 23.4419 9.05572L20.743 14.8433C21.8752 12.4154 21.8142 9.69606 20.8084 7.36216C21.6771 7.31916 22.5195 7.41526 23.3215 7.65927ZM18.1262 3.20164C19.2513 3.85858 20.1945 4.79978 20.8841 5.90546C20.6115 5.91468 20.3367 5.94023 20.0604 5.97347C19.4906 5.10172 18.7659 4.32979 17.9013 3.68384L18.1262 3.20164ZM14.5763 15.9904C12.7545 15.1409 11.9633 12.9673 12.8129 11.1454L15.5117 5.35781C15.7127 4.92672 15.8029 4.45023 15.7795 3.97809L16.6588 4.55232C19.8381 6.62726 21.0256 10.7865 19.4213 14.227C18.5718 16.0489 16.3982 16.84 14.5763 15.9904ZM16.0829 25.0747C15.1205 25.425 14.0413 25.3468 12.8657 24.8434C13.4412 23.7054 14.2148 22.9528 15.173 22.6013C16.464 22.1277 17.8471 22.4623 18.6382 22.744C18.2176 23.4656 17.3802 24.6025 16.0829 25.0747Z" fill="black"/>
</svg>
