<svg width="25" height="25" viewBox="0 0 25 25" fill="none" xmlns="http://www.w3.org/2000/svg">
<path d="M21.3384 3.66162C18.9762 1.29945 15.8407 0 12.5 0C9.1593 0 6.02378 1.29945 3.66162 3.66162C1.29945 6.02378 0 9.1593 0 12.5C0 15.8407 1.29945 18.9762 3.66162 21.3384C6.02378 23.7005 9.1593 25 12.5 25C15.8407 25 18.9762 23.7005 21.3384 21.3384C23.7005 18.9762 25 15.8407 25 12.5C25 9.1593 23.7005 6.02378 21.3384 3.66162ZM20.3335 20.3335C18.2397 22.4274 15.4566 23.5795 12.5 23.5795C9.54335 23.5795 6.76031 22.4274 4.66646 20.3335C0.347222 16.0143 0.347222 8.98569 4.66646 4.66646C6.76031 2.5726 9.54335 1.42045 12.5 1.42045C15.4566 1.42045 18.2397 2.5726 20.3335 4.66646C24.6528 8.98569 24.6528 16.0143 20.3335 20.3335Z" fill="#505050"/>
<path d="M18.0082 6.99172C17.7294 6.71289 17.2822 6.71289 17.0034 6.99172L12.5 11.4951L7.99668 6.99172C7.71785 6.71289 7.27067 6.71289 6.99184 6.99172C6.71301 7.27055 6.71301 7.71773 6.99184 7.99656L11.4952 12.4999L6.99184 17.0033C6.71301 17.2821 6.71301 17.7293 6.99184 18.0081C7.12862 18.1449 7.31275 18.2186 7.49163 18.2186C7.6705 18.2186 7.85463 18.1502 7.99141 18.0081L12.4948 13.5048L16.9981 18.0081C17.1349 18.1449 17.319 18.2186 17.4979 18.2186C17.6821 18.2186 17.8609 18.1502 17.9977 18.0081C18.2765 17.7293 18.2765 17.2821 17.9977 17.0033L13.5049 12.4999L18.0082 7.99656C18.2871 7.71773 18.2871 7.27055 18.0082 6.99172Z" fill="#505050"/>
</svg>
