<svg width="22" height="20" viewBox="0 0 22 20" fill="none" xmlns="http://www.w3.org/2000/svg">
<path d="M20.0262 5.31412H15.802C16.1051 5.10718 16.3654 4.90158 16.547 4.71734C17.6231 3.63459 17.6231 1.87228 16.547 0.789533C15.5016 -0.26251 13.6779 -0.263845 12.6312 0.789533C12.0531 1.37029 10.5164 3.73472 10.7287 5.31412H10.6326C10.8435 3.73472 9.30818 1.37029 8.73009 0.789533C7.68339 -0.263845 5.85967 -0.26251 4.8143 0.789533C3.73822 1.87228 3.73822 3.63459 4.81296 4.71734C4.99587 4.90158 5.25621 5.10718 5.55927 5.31412H1.33508C0.599451 5.31412 0 5.91357 0 6.6492V9.9869C0 10.3554 0.299058 10.6544 0.66754 10.6544H1.33508V18.6649C1.33508 19.4005 1.93453 20 2.67016 20H18.6911C19.4268 20 20.0262 19.4005 20.0262 18.6649V10.6544H20.6937C21.0622 10.6544 21.3613 10.3554 21.3613 9.9869V6.6492C21.3613 5.91357 20.7618 5.31412 20.0262 5.31412ZM5.76087 1.73076C6.03189 1.45841 6.39103 1.30888 6.77286 1.30888C7.15336 1.30888 7.5125 1.45841 7.78352 1.73076C8.68336 2.63595 9.57786 4.94831 9.26679 5.27006C9.26679 5.27006 9.21072 5.31412 9.0198 5.31412C8.09726 5.31412 6.33629 4.35553 5.76087 3.77611C5.20147 3.2127 5.20147 2.29417 5.76087 1.73076ZM10.0131 18.6649H2.67016V10.6544H10.0131V18.6649ZM10.0131 9.31936H1.33508V6.6492H9.0198H10.0131V9.31936ZM13.5778 1.73076C14.1198 1.18739 15.0597 1.18872 15.6004 1.73076C16.1598 2.29417 16.1598 3.2127 15.6004 3.77611C15.025 4.35553 13.264 5.31412 12.3415 5.31412C12.1506 5.31412 12.0945 5.2714 12.0932 5.27006C11.7834 4.94831 12.6779 2.63595 13.5778 1.73076ZM18.6911 18.6649H11.3482V10.6544H18.6911V18.6649ZM20.0262 9.31936H11.3482V6.6492H12.3415H20.0262V9.31936Z" fill="#292929"/>
</svg>
