<svg width="35" height="35" viewBox="0 0 35 35" fill="none" xmlns="http://www.w3.org/2000/svg">
<path d="M33.6518 18.1006C33.7243 17.876 33.7704 17.6428 33.7687 17.4019C34.1962 16.9796 34.4355 16.4134 34.4355 15.8065C34.4355 15.2 34.1962 14.6339 33.7687 14.2116C33.7728 13.6121 33.5419 13.0426 33.1129 12.6123C33.062 12.5616 33.0032 12.5233 32.9487 12.4781C31.3962 5.23997 24.9261 0 17.5 0C10.0648 0 3.60789 5.23528 2.05381 12.4759C1.99786 12.5216 1.93859 12.561 1.8865 12.6123C1.45815 13.042 1.22716 13.6115 1.2313 14.211C0.803774 14.6339 0.564516 15.2 0.564516 15.8065C0.564516 16.4129 0.803774 16.979 1.2313 17.4013C1.22964 17.6428 1.27567 17.876 1.34817 18.1001C0.579125 18.2605 0 18.943 0 19.7581V20.8871C0 21.6559 0.518208 22.2995 1.2211 22.5057C2.05547 26.6982 4.86785 30.0555 8.59647 31.6771C7.87456 31.8709 7.33871 32.5239 7.33871 33.3064C7.33871 34.2401 8.09866 35 9.03226 35H25.9677C26.9013 35 27.6613 34.2401 27.6613 33.3064C27.6613 32.5239 27.1254 31.8709 26.4035 31.6766C30.1316 30.055 32.944 26.6982 33.7789 22.5051C34.4818 22.2995 35 21.6559 35 20.8871V19.7581C35 18.943 34.4209 18.2605 33.6518 18.1006ZM33.3064 15.8065C33.3064 16.162 33.1394 16.49 32.8481 16.7075L32.5788 16.9085L32.6273 17.2409C32.6794 17.6006 32.5652 17.9504 32.3141 18.2012C32.0633 18.4529 31.711 18.567 31.3532 18.5149L31.0208 18.4664L30.8204 18.7357C30.3846 19.3184 29.4519 19.3173 29.0183 18.7357L28.8173 18.467L28.7498 18.4766C28.7746 18.3424 28.7903 18.2045 28.7903 18.0645C28.7903 17.4581 28.5511 16.8919 28.1235 16.4696C28.1277 15.8701 27.8967 15.3006 27.4678 14.8704C27.4027 14.8056 27.3294 14.7543 27.2583 14.6989L27.2109 14.372C27.1588 14.0123 27.2729 13.6625 27.524 13.4117C27.7749 13.1606 28.1271 13.047 28.4849 13.098L28.8173 13.1465L29.0177 12.8772C29.4535 12.2945 30.3863 12.2956 30.8199 12.8772L31.0208 13.1465L31.3532 13.098C31.7099 13.0453 32.0633 13.1595 32.3136 13.4111C32.5647 13.6625 32.6788 14.0123 32.6273 14.372L32.5788 14.7044L32.8481 14.9048C33.1394 15.1229 33.3064 15.4514 33.3064 15.8065ZM8.92999 14.2121C8.93413 13.6126 8.70314 13.0426 8.27424 12.6123C7.89633 12.2352 7.40817 12.0219 6.88831 11.9756C8.5033 7.4961 12.7022 4.51613 17.5 4.51613C22.2989 4.51613 26.4967 7.4961 28.1122 11.9761C27.5924 12.0219 27.1037 12.2352 26.7252 12.6129C26.2969 13.0426 26.0659 13.6126 26.07 14.2121C26.0642 14.2179 26.0598 14.2254 26.0535 14.2309C25.9959 14.2265 25.9402 14.2141 25.882 14.2141C25.8773 14.2141 25.8729 14.2146 25.8691 14.2146C25.4473 13.7876 24.8812 13.5484 24.2742 13.5484C23.6678 13.5484 23.1016 13.7876 22.6793 14.2152C22.0793 14.2309 21.5098 14.442 21.08 14.8709C20.8025 15.1493 20.6178 15.4897 20.5161 15.8561C20.1098 15.5292 19.6073 15.3538 19.0949 15.3442C18.6726 14.9167 18.1064 14.6774 17.5 14.6774C16.8936 14.6774 16.3274 14.9167 15.9051 15.3442C15.9007 15.3442 15.8963 15.3442 15.8922 15.3442C15.374 15.3442 14.8847 15.5281 14.4839 15.8544C14.3822 15.4886 14.1975 15.1488 13.92 14.8704C13.4935 14.4448 12.929 14.2146 12.3342 14.2146C12.3295 14.2146 12.3251 14.2152 12.3212 14.2152C11.8984 13.7876 11.3322 13.5484 10.7258 13.5484C10.1194 13.5484 9.55322 13.7876 9.13094 14.2152C9.06892 14.2168 9.01021 14.2292 8.94984 14.2347C8.9424 14.2276 8.93744 14.219 8.92999 14.2121ZM18.0645 3.4097V1.15384C19.0287 1.19105 19.9725 1.32088 20.8871 1.53946V3.86065C19.9805 3.60623 19.0356 3.45325 18.0645 3.4097ZM16.9355 3.4097C15.9644 3.45325 15.0195 3.60623 14.1129 3.8612V1.53891C15.0275 1.32088 15.9713 1.19105 16.9355 1.15384V3.4097ZM20.8386 29.6371L22.5806 27.895L24.3227 29.6371L22.5806 31.3792L20.8386 29.6371ZM20.0403 28.8388L18.2983 27.0968L20.0403 25.3547L21.7824 27.0968L20.0403 28.8388ZM12.4194 31.3792L10.6773 29.6371L12.4194 27.895L14.1614 29.6371L12.4194 31.3792ZM13.2176 27.0968L14.9597 25.3547L16.7017 27.0968L14.9597 28.8388L13.2176 27.0968ZM14.7915 17.7591C14.7394 17.3994 14.8536 17.0496 15.1047 16.7988C15.3555 16.5477 15.7083 16.4335 16.0656 16.4851L16.398 16.5336L16.5984 16.2643C17.0336 15.6821 17.9658 15.6821 18.4011 16.2643L18.6015 16.5336L18.9339 16.4851C19.2911 16.4319 19.6439 16.5466 19.8942 16.7982C20.1453 17.0496 20.2595 17.3994 20.2079 17.7591L20.1594 18.0915L20.4287 18.2919C20.7201 18.51 20.8871 18.8385 20.8871 19.1935C20.8871 19.5486 20.7201 19.8771 20.4287 20.0952L20.1594 20.2956L20.2079 20.628C20.26 20.9877 20.1459 21.3375 19.8948 21.5883C19.6434 21.8389 19.2922 21.9552 18.9339 21.902L18.6015 21.8535L18.4011 22.1228C17.9658 22.705 17.0336 22.705 16.5984 22.1228L16.398 21.8535L16.0656 21.902C15.7072 21.9547 15.3555 21.8394 15.1047 21.5883C14.8541 21.3369 14.74 20.9877 14.7915 20.628L14.84 20.2956L14.5707 20.0952C14.2799 19.8771 14.1129 19.5486 14.1129 19.1935C14.1129 18.8385 14.2799 18.51 14.5713 18.2919L14.8406 18.0915L14.7915 17.7591ZM16.7442 23.5702C16.9834 23.6565 17.2365 23.7097 17.5 23.7097C17.7635 23.7097 18.0166 23.6565 18.2558 23.5702L19.2421 24.5565L17.5 26.2985L15.7579 24.5565L16.7442 23.5702ZM13.7419 21.4031C13.8436 21.7689 14.0283 22.1087 14.3064 22.3863C14.6849 22.7648 15.1736 22.9787 15.694 23.0239L14.9597 23.7582L13.0037 21.8022C13.2711 21.7182 13.5203 21.5842 13.7419 21.4031ZM14.1614 24.5565L12.4194 26.2985L10.6773 24.5565L12.4194 22.8144L14.1614 24.5565ZM17.5 27.895L19.2421 29.6371L17.5 31.3792L15.7579 29.6371L17.5 27.895ZM20.8386 24.5565L22.5806 22.8144L24.3227 24.5565L22.5806 26.2985L20.8386 24.5565ZM20.0403 23.7582L19.306 23.0239C19.8264 22.9781 20.3151 22.7648 20.6936 22.3863C20.9712 22.1087 21.1558 21.7689 21.2581 21.4031C21.4797 21.5842 21.7289 21.7182 21.9963 21.8022L20.0403 23.7582ZM7.7971 17.1629L8.06641 16.9625L8.01789 16.6301C7.9658 16.2704 8.07991 15.9206 8.33102 15.6697C8.58241 15.4186 8.93578 15.304 9.29191 15.3561L9.62434 15.4046L9.82473 15.1353C10.26 14.5531 11.1922 14.5531 11.6274 15.1353L11.8278 15.4046L12.1603 15.3561C12.5186 15.3023 12.8703 15.4181 13.1206 15.6692C13.3717 15.9206 13.4858 16.2704 13.4343 16.6301L13.3858 16.9625L13.6551 17.1629C13.6675 17.172 13.676 17.1849 13.6879 17.1946C13.6647 17.3266 13.6501 17.4617 13.6507 17.5981C13.2231 18.021 12.9839 18.5871 12.9839 19.1935C12.9839 19.5797 13.0905 19.945 13.2711 20.2719C13.2284 20.3388 13.1788 20.4022 13.1211 20.4599C12.8698 20.7104 12.52 20.8262 12.1603 20.7735L11.8278 20.725L11.6274 20.9943C11.1922 21.5765 10.26 21.5765 9.82473 20.9943L9.62434 20.725L9.29191 20.7735C8.93413 20.8256 8.58186 20.711 8.33102 20.4599C8.08046 20.2085 7.96635 19.8592 8.01789 19.4995L8.06641 19.1671L7.7971 18.9667C7.50575 18.7481 7.33871 18.4195 7.33871 18.0645C7.33871 17.7095 7.50575 17.3809 7.7971 17.1629ZM10.7258 22.5806C10.8507 22.5806 10.9725 22.5644 11.0927 22.5445L9.87903 23.7582L8.70149 22.5806H10.7258ZM7.10496 22.5806L9.08077 24.5565L7.33871 26.2985L3.62084 22.5806H7.10496ZM9.87903 25.3547L11.6211 27.0968L9.87903 28.8388L8.13697 27.0968L9.87903 25.3547ZM10.6563 31.2127C9.03281 30.7769 7.54765 29.9968 6.2841 28.9496L7.33871 27.895L10.6563 31.2127ZM14.9597 30.4354L16.1372 31.6129H13.7821L14.9597 30.4354ZM20.0403 30.4354L21.2179 31.6129H18.8628L20.0403 30.4354ZM27.6613 27.895L28.7159 28.9496C27.4524 29.9968 25.9672 30.7769 24.3437 31.2127L27.6613 27.895ZM25.121 28.8388L23.3789 27.0968L25.121 25.3547L26.863 27.0968L25.121 28.8388ZM25.9192 24.5565L27.895 22.5806H31.3792L27.6613 26.2985L25.9192 24.5565ZM25.121 23.7582L23.9073 22.5445C24.0275 22.5644 24.1493 22.5806 24.2742 22.5806H26.2985L25.121 23.7582ZM26.9827 19.499C27.0348 19.8587 26.9206 20.2085 26.6695 20.4593C26.4181 20.7099 26.0684 20.8256 25.7086 20.773L25.3762 20.7245L25.1758 20.9938C24.74 21.5765 23.8073 21.5754 23.3737 20.9938L23.1727 20.7245L22.8403 20.773C22.4825 20.8251 22.1308 20.7104 21.8794 20.4593C21.8218 20.4017 21.7722 20.3388 21.7295 20.2713C21.9095 19.945 22.0161 19.5797 22.0161 19.1935C22.0161 18.5871 21.7769 18.021 21.3493 17.5987C21.3505 17.4622 21.3353 17.3272 21.3121 17.1951C21.324 17.1855 21.3325 17.1725 21.3449 17.1634L21.6142 16.963L21.5657 16.6306C21.5136 16.2712 21.6277 15.9211 21.8789 15.6703C22.1302 15.4192 22.4831 15.3045 22.8397 15.3566L23.1722 15.4051L23.3726 15.1358C23.8084 14.5531 24.7411 14.5545 25.1747 15.1358L25.3757 15.4051L25.7081 15.3566C26.0664 15.3029 26.4181 15.4186 26.6684 15.6697C26.9195 15.9211 27.0337 16.2712 26.9821 16.6306L26.9336 16.963L27.2029 17.1634C27.4943 17.3809 27.6613 17.7095 27.6613 18.0645C27.6613 18.4201 27.4943 18.7481 27.2029 18.9656L26.9336 19.1665L26.9827 19.499ZM31.6587 11.969C31.6146 11.9659 31.5724 11.956 31.5277 11.956C31.523 11.956 31.5186 11.9566 31.5148 11.9566C31.0925 11.5296 30.5263 11.2903 29.9194 11.2903C29.6404 11.2903 29.3717 11.3463 29.12 11.4428C27.8556 8.06806 25.2497 5.49163 22.0161 4.23663V1.85893C26.6513 3.36973 30.3502 7.13336 31.6587 11.969ZM12.9839 1.85728V4.23663C9.75086 5.49163 7.14521 8.06806 5.88056 11.4428C5.6289 11.3468 5.36015 11.2903 5.08065 11.2903C4.47423 11.2903 3.90806 11.5296 3.48578 11.9571C3.48137 11.9571 3.47696 11.9571 3.47282 11.9571C3.42844 11.9571 3.38489 11.9673 3.34079 11.9701C4.64816 7.12977 8.34481 3.3667 12.9839 1.85728ZM2.15194 14.9048L2.42124 14.7044L2.37273 14.372C2.32064 14.0123 2.43475 13.6625 2.68586 13.4117C2.93725 13.1606 3.29007 13.047 3.64675 13.098L3.97918 13.1465L4.17957 12.8772C4.61481 12.295 5.54703 12.295 5.98227 12.8772L6.18266 13.1465L6.51509 13.098C6.87287 13.0453 7.22514 13.1595 7.47543 13.4111C7.72654 13.6625 7.84065 14.0123 7.78911 14.372L7.74115 14.7C7.67003 14.7554 7.59671 14.8056 7.53166 14.8704C7.10331 15.3001 6.87232 15.8696 6.87646 16.4691C6.44894 16.8919 6.20968 17.4581 6.20968 18.0645C6.20968 18.2045 6.22539 18.3424 6.2502 18.4766L6.18266 18.467L5.98227 18.7357C5.54703 19.3179 4.61481 19.3179 4.17957 18.7357L3.97918 18.4664L3.64675 18.5149C3.28842 18.5659 2.9367 18.4523 2.68586 18.2012C2.4353 17.9498 2.32119 17.6006 2.37273 17.2409L2.42124 16.9085L2.15194 16.7081C1.86059 16.49 1.69355 16.1615 1.69355 15.8065C1.69355 15.4514 1.86059 15.1229 2.15194 14.9048ZM1.12903 19.7581C1.12903 19.4466 1.38207 19.1935 1.69355 19.1935H2.12328C2.51276 19.4899 2.97942 19.6564 3.47227 19.6558H3.48523C3.90806 20.0833 4.47423 20.3226 5.08065 20.3226C5.68761 20.3226 6.25378 20.0828 6.67606 19.6558H6.68378C6.74415 19.6558 6.80424 19.6497 6.8646 19.6451C6.86901 19.6497 6.87177 19.6547 6.87646 19.6594C6.87232 20.2589 7.10331 20.8284 7.53221 21.2573C7.60581 21.3309 7.68767 21.3901 7.76899 21.4516H1.69355C1.38207 21.4516 1.12903 21.1986 1.12903 20.8871V19.7581ZM2.50146 23.0578L6.54045 27.0968L5.44753 28.1897C4.06683 26.7963 3.03703 25.0424 2.50146 23.0578ZM25.9677 32.7419C26.2792 32.7419 26.5323 32.995 26.5323 33.3064C26.5323 33.6179 26.2792 33.871 25.9677 33.871H9.03226C8.72078 33.871 8.46774 33.6179 8.46774 33.3064C8.46774 32.995 8.72078 32.7419 9.03226 32.7419H25.9677ZM29.5525 28.1897L28.4596 27.0968L32.4985 23.0578C31.963 25.0424 30.9332 26.7963 29.5525 28.1897ZM33.871 20.8871C33.871 21.1986 33.6179 21.4516 33.3064 21.4516H27.2316C27.3123 21.3901 27.3947 21.3309 27.4683 21.2573C27.8972 20.8284 28.1282 20.2589 28.1241 19.6594C28.1282 19.6553 28.131 19.6503 28.1348 19.6462C28.1993 19.6519 28.2647 19.6583 28.3245 19.6558C28.7457 20.0828 29.3118 20.3226 29.9194 20.3226C30.5258 20.3226 31.0919 20.0833 31.5142 19.6558H31.5272C32.02 19.6558 32.4867 19.4893 32.8767 19.1935H33.3064C33.6179 19.1935 33.871 19.4466 33.871 19.7581V20.8871Z" fill="black"/>
<path d="M17.4999 20.8871C18.4335 20.8871 19.1935 20.1272 19.1935 19.1935C19.1935 18.2599 18.4335 17.5 17.4999 17.5C16.5663 17.5 15.8064 18.2599 15.8064 19.1935C15.8064 20.1272 16.5663 20.8871 17.4999 20.8871ZM17.4999 18.629C17.8114 18.629 18.0645 18.8821 18.0645 19.1935C18.0645 19.505 17.8114 19.7581 17.4999 19.7581C17.1885 19.7581 16.9354 19.505 16.9354 19.1935C16.9354 18.8821 17.1885 18.629 17.4999 18.629Z" fill="black"/>
<path d="M10.7258 19.7581C11.6594 19.7581 12.4193 18.9981 12.4193 18.0645C12.4193 17.1309 11.6594 16.371 10.7258 16.371C9.79217 16.371 9.03223 17.1309 9.03223 18.0645C9.03223 18.9981 9.79217 19.7581 10.7258 19.7581ZM10.7258 17.5C11.0373 17.5 11.2903 17.753 11.2903 18.0645C11.2903 18.376 11.0373 18.629 10.7258 18.629C10.4143 18.629 10.1613 18.376 10.1613 18.0645C10.1613 17.753 10.4143 17.5 10.7258 17.5Z" fill="black"/>
<path d="M5.08051 17.5C6.01411 17.5 6.77406 16.7401 6.77406 15.8065C6.77406 14.8729 6.01411 14.1129 5.08051 14.1129C4.14691 14.1129 3.38696 14.8729 3.38696 15.8065C3.38696 16.7401 4.14691 17.5 5.08051 17.5ZM5.08051 15.2419C5.39199 15.2419 5.64503 15.495 5.64503 15.8065C5.64503 16.1179 5.39199 16.371 5.08051 16.371C4.76904 16.371 4.516 16.1179 4.516 15.8065C4.516 15.495 4.76904 15.2419 5.08051 15.2419Z" fill="black"/>
<path d="M24.2741 16.371C23.3405 16.371 22.5806 17.1309 22.5806 18.0645C22.5806 18.9981 23.3405 19.7581 24.2741 19.7581C25.2077 19.7581 25.9677 18.9981 25.9677 18.0645C25.9677 17.1309 25.2077 16.371 24.2741 16.371ZM24.2741 18.629C23.9626 18.629 23.7096 18.376 23.7096 18.0645C23.7096 17.753 23.9626 17.5 24.2741 17.5C24.5856 17.5 24.8386 17.753 24.8386 18.0645C24.8386 18.376 24.5856 18.629 24.2741 18.629Z" fill="black"/>
<path d="M29.9194 14.1129C28.9858 14.1129 28.2258 14.8729 28.2258 15.8065C28.2258 16.7401 28.9858 17.5 29.9194 17.5C30.853 17.5 31.6129 16.7401 31.6129 15.8065C31.6129 14.8729 30.853 14.1129 29.9194 14.1129ZM29.9194 16.371C29.6079 16.371 29.3549 16.1179 29.3549 15.8065C29.3549 15.495 29.6079 15.2419 29.9194 15.2419C30.2309 15.2419 30.4839 15.495 30.4839 15.8065C30.4839 16.1179 30.2309 16.371 29.9194 16.371Z" fill="black"/>
</svg>
