<svg width="21" height="25" viewBox="0 0 21 25" fill="none" xmlns="http://www.w3.org/2000/svg">
<path d="M16.3799 1.6375C16.1462 1.50254 15.847 1.58271 15.712 1.81645C15.5771 2.05068 15.6572 2.34941 15.891 2.48437C16.1247 2.61982 16.4239 2.53964 16.5589 2.30542C16.6939 2.07173 16.6137 1.77295 16.3799 1.6375Z" fill="#292929"/>
<path d="M10.268 0C9.9981 0 9.77905 0.219042 9.77905 0.488963C9.77905 0.758884 9.9981 0.977926 10.268 0.977926C10.5379 0.977926 10.757 0.758884 10.757 0.488963C10.757 0.219042 10.5379 0 10.268 0Z" fill="#292929"/>
<path d="M10.268 13.0062C9.9981 13.0062 9.77905 13.2253 9.77905 13.4952C9.77905 13.7651 9.9981 13.9842 10.268 13.9842C10.5379 13.9842 10.757 13.7651 10.757 13.4952C10.757 13.2253 10.5379 13.0062 10.268 13.0062Z" fill="#292929"/>
<path d="M4.82403 1.8165C4.68907 1.58276 4.38985 1.50258 4.15611 1.63755C3.92237 1.77299 3.8422 2.07172 3.97716 2.30546C4.11212 2.53969 4.41134 2.61987 4.64508 2.48442C4.87877 2.34946 4.95899 2.05068 4.82403 1.8165Z" fill="#292929"/>
<path d="M10.268 1.95587C9.998 1.95587 9.77905 2.17477 9.77905 2.44483V4.40069C9.77905 4.67075 9.998 4.88965 10.268 4.88965C10.538 4.88965 10.757 4.67075 10.757 4.40069V2.44479C10.757 2.17477 10.538 1.95587 10.268 1.95587Z" fill="#292929"/>
<path d="M6.77982 5.20447L5.80194 3.51023C5.66688 3.27635 5.36791 3.19603 5.13402 3.33118C4.90014 3.46619 4.81996 3.76516 4.95497 3.9991L5.9329 5.69338C6.02352 5.85026 6.18783 5.93796 6.35687 5.93796C6.43973 5.93796 6.52386 5.91682 6.60082 5.87238C6.83465 5.73737 6.91483 5.43835 6.77982 5.20447Z" fill="#292929"/>
<path d="M15.4021 3.33129C15.1681 3.19623 14.8692 3.2764 14.7342 3.51034L13.7562 5.20457C13.6212 5.43841 13.7014 5.73743 13.9353 5.87244C14.0123 5.91687 14.0963 5.93801 14.1792 5.93801C14.3483 5.93801 14.5126 5.85027 14.6032 5.69344L15.5811 3.9992C15.7161 3.76532 15.636 3.46625 15.4021 3.33129Z" fill="#292929"/>
<path d="M20.5361 13.4919C20.536 13.4859 20.5357 13.4799 20.5354 13.4739C20.5351 13.4676 20.5347 13.4614 20.5342 13.4551C20.5339 13.4511 20.5338 13.447 20.5334 13.443C20.5328 13.4376 20.5318 13.4321 20.5311 13.4267C20.5302 13.4206 20.5292 13.4145 20.5281 13.4083C20.5273 13.4037 20.5267 13.3991 20.5257 13.3946C20.5248 13.39 20.5235 13.3855 20.5224 13.381C20.5209 13.3747 20.5192 13.3685 20.5175 13.3622C20.516 13.3572 20.5148 13.3521 20.5133 13.3471C20.5121 13.3436 20.5107 13.3401 20.5094 13.3366C20.5071 13.33 20.5047 13.3234 20.5022 13.3168C20.5001 13.3116 20.4982 13.3063 20.496 13.3012C20.4948 13.2985 20.4934 13.2958 20.4922 13.2931C20.4891 13.2863 20.4858 13.2795 20.4823 13.2727C20.4797 13.2676 20.4772 13.2624 20.4743 13.2574C20.4738 13.2565 20.4735 13.2556 20.473 13.2547L17.5431 8.07173C17.5416 8.06914 17.5398 8.06694 17.5383 8.0644C17.5301 8.05049 17.5212 8.03696 17.5117 8.02393C17.5092 8.02051 17.5068 8.01704 17.5042 8.01367C17.4921 7.9979 17.479 7.98262 17.4649 7.96836C17.4647 7.96816 17.4645 7.96797 17.4642 7.96772C17.4509 7.95425 17.4364 7.9417 17.4213 7.92974C17.4176 7.92676 17.4138 7.92398 17.4099 7.92114C17.3978 7.91211 17.3851 7.90361 17.372 7.89556C17.3678 7.89297 17.3636 7.89024 17.3593 7.88779C17.3426 7.87832 17.3254 7.86948 17.3074 7.86187C17.3072 7.86177 17.307 7.86167 17.3067 7.86157C17.3067 7.86152 17.3066 7.86152 17.3065 7.86148C17.2884 7.85386 17.2699 7.8478 17.2514 7.84248C17.2462 7.84102 17.241 7.83989 17.2358 7.83858C17.2212 7.83491 17.2066 7.83198 17.192 7.82969C17.1867 7.82891 17.1816 7.82803 17.1763 7.82739C17.1568 7.825 17.1372 7.82349 17.1177 7.82349C17.1177 7.82349 17.1176 7.82349 17.1175 7.82349H17.1174C17.1166 7.82349 17.1158 7.82349 17.115 7.82349H10.2681H10.2668H3.42347C3.40321 7.82344 3.38295 7.825 3.36258 7.82749C3.35785 7.82808 3.35321 7.82891 3.34852 7.82964C3.33373 7.83194 3.31893 7.83491 3.30419 7.83862C3.29872 7.83999 3.2933 7.84126 3.28793 7.84282C3.27196 7.84741 3.25609 7.85288 3.24037 7.85918C3.23773 7.86026 3.23505 7.86099 3.23241 7.86211C3.23197 7.86231 3.23148 7.8624 3.23104 7.8626C3.21337 7.87012 3.19657 7.87881 3.18031 7.88814C3.17621 7.89048 3.17235 7.89312 3.16835 7.89556C3.15516 7.90357 3.14247 7.91211 3.13031 7.92124C3.12631 7.92422 3.12235 7.92725 3.1184 7.93037C3.10482 7.94116 3.09183 7.95259 3.07963 7.96465C3.07802 7.96621 3.07631 7.96763 3.07474 7.96924C3.06073 7.98345 3.04769 7.99854 3.03563 8.01426C3.03334 8.01724 3.03129 8.02041 3.02904 8.02344C3.01942 8.03657 3.01044 8.0502 3.00223 8.06421C3.00077 8.06675 2.99891 8.06895 2.99745 8.07148L0.0694822 13.2437C0.0693845 13.2439 0.0693358 13.244 0.0692382 13.2441L0.0634275 13.2543C0.0629392 13.2552 0.0625974 13.2561 0.0620603 13.257C0.059033 13.2624 0.0562987 13.268 0.0534666 13.2736C0.049951 13.2804 0.046533 13.2873 0.0433592 13.2944C0.0423827 13.2966 0.0413084 13.2987 0.0403319 13.3009C0.0379393 13.3064 0.0358887 13.312 0.0336914 13.3177C0.0310547 13.3244 0.0285157 13.3312 0.0261719 13.3381C0.0251465 13.341 0.0239745 13.3439 0.0230468 13.3469C0.0213378 13.3522 0.0200684 13.3577 0.0185059 13.3632C0.0166992 13.3697 0.0148926 13.3761 0.013379 13.3827C0.0124512 13.3866 0.0113281 13.3905 0.010498 13.3944C0.00947263 13.3993 0.00883795 13.4044 0.00795905 13.4094C0.00683601 13.4157 0.00571301 13.422 0.0048341 13.4285C0.00419934 13.4333 0.00336922 13.4381 0.00288094 13.4429C0.00239266 13.4473 0.00234379 13.4517 0.00195316 13.4561C0.00141605 13.4626 0.000927728 13.4691 0.000683588 13.4756C0.000488276 13.481 0.000195418 13.4864 0.00014659 13.4917C0.00014659 13.4929 0 13.494 0 13.4951C0 13.4981 0.000390755 13.5011 0.000439583 13.5041C0.000537238 13.5106 0.000781375 13.517 0.00112317 13.5235C0.00141614 13.5288 0.00170907 13.5342 0.00219735 13.5395C0.00258798 13.544 0.00312503 13.5485 0.00366213 13.553C0.00439455 13.5591 0.00527352 13.5652 0.00625008 13.5714C0.00703133 13.5762 0.00776371 13.581 0.00869144 13.5858C0.00961917 13.5908 0.0105957 13.5957 0.0117188 13.6007C0.0130371 13.6066 0.0145508 13.6124 0.0160645 13.6182C0.0171875 13.6226 0.0183594 13.6269 0.01958 13.6313C0.0210937 13.6365 0.0226074 13.6417 0.0242676 13.6469C0.0260742 13.6524 0.0281249 13.6579 0.0301269 13.6634C0.0316894 13.6676 0.0333006 13.6719 0.0349608 13.6761C0.0370116 13.6812 0.0390136 13.6863 0.0412109 13.6913C0.0434081 13.6964 0.0458496 13.7013 0.0482421 13.7063C0.0504394 13.7109 0.0526855 13.7154 0.0549804 13.7199C0.0574706 13.7246 0.059912 13.7293 0.0625487 13.734C0.0650389 13.7385 0.0676268 13.7428 0.0702635 13.7472C0.0731932 13.7521 0.0762694 13.7569 0.0793944 13.7617C0.0822752 13.7661 0.0852537 13.7705 0.088281 13.7748C0.0909666 13.7786 0.0936033 13.7824 0.0964353 13.7863C0.100049 13.7911 0.10376 13.7959 0.107568 13.8007C0.111035 13.805 0.114648 13.8091 0.118212 13.8133C0.120263 13.8157 0.121972 13.8182 0.124121 13.8206L9.96446 24.8368C9.97652 24.8503 9.98941 24.8631 10.0028 24.875C10.0047 24.8767 10.0068 24.8782 10.0088 24.8799C10.0229 24.8922 10.0377 24.9034 10.053 24.9139C10.058 24.9174 10.063 24.9206 10.0681 24.9238C10.0824 24.9328 10.097 24.941 10.1121 24.9485C10.1162 24.9506 10.1202 24.9529 10.1244 24.9548C10.1434 24.9636 10.1629 24.971 10.1829 24.9773C10.1877 24.9788 10.1925 24.9799 10.1974 24.9812C10.2134 24.9857 10.2297 24.9894 10.2462 24.9923C10.2523 24.9933 10.2583 24.9944 10.2644 24.9952C10.2858 24.998 10.3072 25 10.329 25C10.3295 25 10.33 25 10.3305 25C10.3524 24.9999 10.3739 24.9979 10.3953 24.995C10.4014 24.9941 10.4074 24.993 10.4135 24.992C10.43 24.989 10.4464 24.9853 10.4626 24.9807C10.4674 24.9794 10.4723 24.9783 10.4771 24.9767C10.4971 24.9704 10.5166 24.9628 10.5357 24.9539C10.5398 24.9519 10.5438 24.9496 10.5479 24.9476C10.5629 24.94 10.5776 24.9317 10.5919 24.9225C10.597 24.9193 10.6021 24.916 10.6071 24.9125C10.6222 24.902 10.6369 24.8908 10.6508 24.8785C10.6529 24.8767 10.6552 24.8751 10.6573 24.8732C10.6707 24.8611 10.6836 24.8482 10.6957 24.8345L20.4139 13.8188C20.4157 13.8168 20.4171 13.8146 20.4188 13.8126C20.422 13.8089 20.4253 13.8051 20.4284 13.8012C20.4326 13.796 20.4366 13.7907 20.4405 13.7853C20.4433 13.7816 20.446 13.7779 20.4486 13.7741C20.4513 13.7702 20.454 13.7662 20.4566 13.7622C20.46 13.757 20.4633 13.7517 20.4665 13.7464C20.4691 13.742 20.4717 13.7377 20.4742 13.7333C20.4766 13.729 20.4788 13.7247 20.481 13.7204C20.4835 13.7156 20.4859 13.7106 20.4883 13.7057C20.4907 13.7006 20.4932 13.6956 20.4954 13.6905C20.4974 13.6859 20.4992 13.6812 20.501 13.6766C20.5028 13.672 20.5046 13.6675 20.5062 13.6628C20.5083 13.6572 20.5104 13.6516 20.5123 13.6459C20.5138 13.6412 20.5151 13.6365 20.5165 13.6318C20.5178 13.6271 20.519 13.6223 20.5202 13.6176C20.5217 13.6116 20.5234 13.6057 20.5247 13.5997C20.5257 13.5952 20.5265 13.5908 20.5273 13.5862C20.5283 13.581 20.5291 13.5757 20.5299 13.5704C20.5308 13.5643 20.5318 13.5582 20.5325 13.552C20.533 13.548 20.5335 13.5439 20.5338 13.5399C20.5343 13.534 20.5346 13.5282 20.5349 13.5222C20.5353 13.5159 20.5356 13.5096 20.5357 13.5033C20.5357 13.5007 20.5361 13.4981 20.5361 13.4955C20.5362 13.4941 20.5361 13.493 20.5361 13.4919ZM16.3824 8.80122L14.797 12.5843L11.3707 8.80122H16.3824ZM9.17326 8.80122L5.77791 12.5896L4.16273 8.80122H9.17326ZM3.36088 9.41401L4.89246 13.0062H1.32758L3.36088 9.41401ZM1.58139 13.9842H5.30931L8.71364 21.9684L1.58139 13.9842ZM10.3253 23.2551L6.37239 13.9842H8.31227C8.58229 13.9842 8.80124 13.7653 8.80124 13.4952C8.80124 13.2251 8.58229 13.0062 8.31227 13.0062H6.71775L10.27 9.04267L13.8598 13.0062H12.224C11.954 13.0062 11.735 13.2251 11.735 13.4952C11.735 13.7653 11.954 13.9842 12.224 13.9842H14.2104L10.3253 23.2551ZM11.9291 21.9584L15.2707 13.9842H18.9639L11.9291 21.9584ZM15.6805 13.0062L17.1827 9.42138L19.2092 13.0062H15.6805Z" fill="#292929"/>
</svg>
