<svg width="44" height="44" viewBox="0 0 44 44" fill="none" xmlns="http://www.w3.org/2000/svg">
<path d="M9.97219 40.3398C9.32009 41.274 8.3477 41.9367 7.23964 42.202L7.5412 43.5008C8.94209 43.1771 10.1774 42.3548 11.0167 41.187L12.9399 42.7474C13.1494 42.9174 13.4403 42.9444 13.6777 42.8159C13.9148 42.6875 14.0512 42.4287 14.0233 42.1605L13.3963 36.1395L14.9309 38.3676C15.4455 39.1148 16.2941 39.5617 17.2011 39.5628C17.2973 39.5629 17.3938 39.5581 17.4899 39.5481C18.2916 39.4656 19.0173 39.0368 19.4764 38.3745C19.9987 37.6185 20.1106 36.6519 19.7749 35.7964C19.4393 34.9408 18.6997 34.3084 17.8023 34.1095L17.2623 33.9893L40.2418 29.3089C40.4443 29.2675 40.6161 29.1344 40.7071 28.9484C40.7981 28.7628 40.7977 28.5455 40.706 28.3599L40.5361 28.0168C39.8855 26.6988 39.1671 25.4212 38.3937 24.1817C38.9213 24.0731 39.3708 23.7309 39.6158 23.251C39.8605 22.7711 39.874 22.206 39.652 21.7154C39.534 21.4495 39.3929 21.1918 39.2637 20.9296L40.9011 19.0697C41.0244 18.9299 41.0834 18.745 41.0641 18.5597C41.0448 18.3745 40.949 18.206 40.7996 18.0946L38.8155 16.6129C38.8882 16.3296 38.9709 16.049 39.0322 15.7637C39.152 15.2038 38.9967 14.6205 38.6144 14.1942C38.2322 13.7681 37.669 13.5504 37.0995 13.6088L35.5599 13.7691L37.3514 11.5603C37.7266 11.0982 37.8609 10.4858 37.7137 9.90888C37.5669 9.33226 37.1559 8.85878 36.6055 8.63225L35.9534 8.36492L35.9819 8.36195L35.7055 5.70816C35.6674 5.34186 35.3395 5.0758 34.9732 5.11394L32.4573 5.37593L31.8975 4.55193C31.5624 4.06007 31.0144 3.75538 30.4199 3.73021C29.825 3.70539 29.2534 3.96298 28.8786 4.42532L27.0857 6.63395L26.8858 4.71436C26.8256 4.14542 26.4965 3.63918 26.0009 3.35294C25.5055 3.06666 24.9027 3.03482 24.3796 3.26707C24.1135 3.38448 23.8558 3.52262 23.5939 3.65466L21.7339 2.01796C21.5917 1.90083 21.4085 1.84559 21.2252 1.86468C21.0419 1.88377 20.874 1.97557 20.759 2.11948L19.2839 4.09137C18.9997 4.0185 18.7152 3.94598 18.4278 3.88424C17.8673 3.76451 17.2835 3.92025 16.8575 4.30313C16.4311 4.68604 16.2139 5.24983 16.2732 5.81952L16.2768 5.85417C15.2496 5.45566 14.2123 5.08079 13.1533 4.75729C13.1461 4.75803 13.1387 4.75881 13.1316 4.75955C13.0439 4.73464 12.9519 4.72882 12.8616 4.74215L12.8263 4.74583C12.7445 4.76156 12.6662 4.7923 12.5959 4.83695C12.5882 4.84232 12.5824 4.84883 12.5748 4.85453C12.5675 4.85987 12.567 4.85534 12.5638 4.85567C12.5602 4.85605 12.5554 4.86702 12.5497 4.87187C12.4761 4.92897 12.4148 5.00082 12.3707 5.08301C12.3713 5.08884 12.3667 5.09521 12.3632 5.1018C12.3189 5.18956 12.2946 5.28638 12.2921 5.38486L11.9239 30.3694L11.3418 28.8701C10.918 27.7775 9.81685 27.1029 8.65123 27.221C7.48532 27.3395 6.54234 28.2217 6.34637 29.3769C6.15077 30.5323 6.75078 31.6759 7.81239 32.1716L9.9986 33.1929L3.77025 33.8415C3.50208 33.8695 3.27698 34.0563 3.20015 34.315C3.12328 34.5735 3.20964 34.8526 3.41919 35.0226L7.61202 38.4246C6.45891 39.2256 5.12423 39.726 3.72861 39.8802L3.86675 41.2068C5.61951 41.0177 7.28976 40.3632 8.7038 39.3107L9.97219 40.3398ZM17.5133 35.4089C18.1382 35.5465 18.5952 36.0836 18.6313 36.7225C18.667 37.3614 18.2732 37.9462 17.6678 38.153C17.0621 38.3598 16.3927 38.1384 16.0304 37.6111L13.9926 34.6545L14.049 34.6425L17.5133 35.4089ZM38.4217 17.9808L39.425 18.7304L38.5977 19.6707C38.4425 19.4027 38.285 19.1356 38.1193 18.8739C38.2299 18.5786 38.3242 18.2793 38.4217 17.9808ZM38.4137 22.6697C38.3414 22.7964 38.2121 22.8806 38.0665 22.8948L37.5869 22.9447C37.3232 22.5505 37.0595 22.1563 36.7834 21.7712C37.0307 21.3199 37.2657 20.8636 37.4799 20.3993C37.8297 21.0006 38.1482 21.6193 38.4342 22.2531C38.4959 22.3868 38.4882 22.5425 38.4137 22.6697ZM37.2377 14.9353C37.3828 14.9205 37.5264 14.9756 37.6238 15.0843C37.7212 15.1927 37.7609 15.3415 37.7306 15.4841C37.3454 17.2561 36.73 18.9698 35.9001 20.5822C34.6966 19.0136 33.3922 17.5256 31.9953 16.1268C32.7261 15.9803 33.4206 15.6887 34.0365 15.2687L37.2377 14.9353ZM36.0982 9.86595C36.2587 9.93207 36.3785 10.0702 36.4212 10.2386C36.4639 10.4067 36.4249 10.5852 36.3159 10.7203L35.0535 12.2798C35.1731 11.6807 35.174 11.0638 35.0563 10.4645C34.9752 10.0729 34.8679 9.68698 34.735 9.30992L36.0982 9.86595ZM34.448 6.50959L34.5824 7.80054L33.8895 7.51585C33.8194 7.40234 33.7571 7.28508 33.6811 7.17416L33.3099 6.6281L34.448 6.50959ZM27.8105 7.85719L29.9135 5.26533C30.023 5.13148 30.1887 5.05661 30.3616 5.06316C30.5354 5.06961 30.6953 5.1587 30.7928 5.30275L32.5777 7.92484C33.1529 8.7672 33.5505 9.71777 33.7464 10.7188C33.9623 11.7197 33.6853 12.7635 33.0015 13.5254C32.3572 14.2516 31.4311 14.6642 30.4604 14.6576C29.3653 13.6573 28.2231 12.7116 27.0345 11.8201C26.6184 10.4524 26.909 8.96727 27.8105 7.85719ZM39.1223 28.1729L16.193 32.8435C19.8359 30.2262 22.3668 26.3394 23.2872 21.949C24.5658 15.4646 21.323 10.8896 18.1852 8.10327C27.2256 12.2438 34.603 19.3157 39.1223 28.1729ZM24.9176 4.48489C25.0511 4.4245 25.2057 4.43197 25.3328 4.50516C25.4599 4.57835 25.5445 4.70803 25.5593 4.8538L25.7747 6.92204C24.9085 6.36632 24.0057 5.87039 23.0724 5.43754C23.6706 5.08879 24.2867 4.77091 24.9176 4.48489ZM21.3949 3.49407L22.3352 4.32134C22.0672 4.4766 21.7989 4.63222 21.5372 4.79795C21.245 4.68892 20.9516 4.58164 20.6546 4.48423L21.3949 3.49407ZM17.5998 5.68137C17.5849 5.53592 17.6406 5.39164 17.75 5.29447C17.8594 5.19699 18.0088 5.15785 18.1519 5.18944C20.9334 5.78994 23.5636 6.95031 25.8823 8.5998C25.6274 9.27948 25.5062 10.0019 25.5261 10.7276C23.0583 9.03368 20.4286 7.58844 17.676 6.413L17.5998 5.68137ZM13.609 6.47377C15.2851 7.39695 16.8246 8.54878 18.1827 9.89628C21.5715 13.3103 22.8484 17.2787 21.9783 21.6911C20.6799 28.2738 15.5478 31.8447 13.3174 33.1155L13.2158 33.0926L13.609 6.47377ZM10.6573 39.1783L9.75718 38.448C10.3999 37.854 10.9857 37.2017 11.5074 36.4995C11.3363 37.4242 11.0505 38.3241 10.6573 39.1783ZM12.53 40.6975L11.7243 40.0441C11.9548 39.5981 12.1533 39.1368 12.3181 38.6626L12.53 40.6975ZM8.37439 30.9633C7.85677 30.721 7.56459 30.1631 7.66014 29.5998C7.75568 29.0366 8.2157 28.6063 8.78423 28.5484C9.35279 28.4909 9.88988 28.8196 10.0966 29.3523L11.2398 32.3009L8.37439 30.9633ZM5.50961 35.0014L11.2907 34.3993C10.5944 35.5885 9.72039 36.6643 8.69902 37.5892L5.50961 35.0014Z" fill="black"/>
</svg>
