<svg width="267" height="20" viewBox="0 0 267 20" fill="none" xmlns="http://www.w3.org/2000/svg">
<path d="M13.2 0L7.4 12.2C6.8 13.4 6.3 14.3 5.3 14.8C4.8 15.1 3.9 15.2 3.5 15.2C2.9 15.2 2.3 15.1 1.8 14.9L2.7 12.4C2.8 12.4 3.3 12.6 3.5 12.6C3.8 12.6 4 12.6 4.2 12.4C4.7 12.1 5.2 11.1 5.3 11L0 0H2.9L6.6 8.2L10.3 0H13.2Z" fill="black"/>
<path d="M21.6999 9.29922L25.3999 14.8992H22.1999L19.1999 10.3992H17.6999V14.8992H14.8999V3.69922H17.7999V8.19922H19.2999L22.0999 3.69922H25.1999L21.6999 9.29922Z" fill="black"/>
<path d="M37.8001 9.40039C37.8001 10.9004 37.4 12.4004 36.5 13.5004C35.6 14.6004 34.1 15.3004 32.6 15.3004C31.5001 15.3004 30.5 15.1004 29.7 14.5004V19.9004H26.8V3.70039H29.3V4.40039C30.2 3.80039 31.3 3.40039 32.4 3.40039C34 3.40039 35.5 4.00039 36.4 5.20039C37.3 6.30039 37.8001 7.80039 37.8001 9.40039ZM34.8001 9.40039C34.8001 8.40039 34.6 7.60039 34.2 7.00039C33.7 6.30039 33.0001 6.00039 32.1 6.00039C31.3 6.00039 30.7 6.20039 30.2 6.80039C29.7 7.40039 29.4 8.40039 29.4 9.40039C29.4 10.4004 29.6 11.4004 30.2 12.0004C30.7 12.5004 31.4 12.8004 32.2 12.8004C33 12.8004 33.8001 12.5004 34.3001 11.8004C34.6001 11.2004 34.8001 10.3004 34.8001 9.40039Z" fill="black"/>
<path d="M39.8 5.8C39.8 5.7 39.9 5.6 40 5.5C41 4.1 42.6 3.5 44.4 3.5C46.5 3.5 48.1 4.2 49 5.7C49.4 6.4 49.6 7.3 49.6 7.9V15H47.1V13.1C46.9 13.7 46.2 14.3 45.7 14.6C44.9 15.1 43.9 15.3 43.1 15.3C42 15.3 40.9 14.8 40.2 14.1C39.6 13.3 39.3 12.7 39.3 11.7C39.3 10.5 40.1 9.3 41.1 8.7C42.3 8 43.2 8 44.8 7.8L46.6 7.6C46.5 7.2 46.2 6.8 45.8 6.6C45.3 6.3 44.8 6.2 44.2 6.2C43.5 6.2 42.9 6.4 42.4 6.9C42.3 7 42.2 7.1 42.2 7.2L39.8 5.8ZM44.8 10.1C43.6 10.3 42.3 10.6 42.3 11.5C42.3 12.2 42.9 12.7 43.8 12.7C45 12.7 46.4 12.1 46.8 10.7C46.9 10.2 46.9 9.8 46.9 9.7L44.8 10.1Z" fill="black"/>
<path d="M52.3999 3.69922H54.8999V12.0992H57.5999V3.69922H60.0999V12.0992H62.7999V3.69922H65.2999V14.8992H52.3999V3.69922Z" fill="black"/>
<path d="M71.2 11.6992C71.7 12.2992 72.4 12.6992 73.2 12.6992C74 12.6992 74.8 12.3992 75.3 11.6992C75.4 11.5992 75.4 11.4992 75.5 11.2992L78.3 12.4992C78.1 12.7992 77.9 13.0992 77.6 13.3992C76.5 14.5992 74.9 15.2992 73.2 15.1992C71.5 15.0992 69.9 14.5992 68.9 13.2992C67.9 12.0992 67.5 10.6992 67.5 9.19922C67.5 7.59922 67.9 6.29922 68.9 5.09922C69.9 3.89922 71.5 3.19922 73.2 3.19922C74.9 3.19922 76.5 3.79922 77.5 5.09922C78.4 6.19922 78.9 7.69922 78.9 9.19922C78.9 9.39922 78.9 9.69922 78.9 9.99922H70.6C70.7 10.6992 70.8 11.1992 71.2 11.6992ZM71.2 6.99922C71 7.29922 70.8 7.59922 70.7 7.89922H75.7C75.6 7.59922 75.5 7.29922 75.3 6.99922C74.8 6.39922 74.1 5.99922 73.2 5.99922C72.4 6.09922 71.6 6.39922 71.2 6.99922Z" fill="black"/>
<path d="M91.5 3.69922V14.8992H88.7001V10.5992H84.1V14.9992H81.3V3.69922H84.1V7.69922H88.7001V3.69922H91.5Z" fill="black"/>
<path d="M104.8 14.9992H101.9V8.19922L96.8999 14.9992H94.3999V3.69922H97.2999V10.1992L102.3 3.69922H104.8V14.9992Z" fill="black"/>
<path d="M116.9 3.69922V14.8992H114V11.2992H112L110.3 14.8992H107.1L109.1 10.8992C108.8 10.7992 108.5 10.5992 108.3 10.2992C107.5 9.59922 107.2 8.49922 107.2 7.49922C107.2 6.49922 107.6 5.39922 108.3 4.69922C109.1 3.99922 110.1 3.69922 111.1 3.69922H116.9ZM114 6.39922H111C110.7 6.39922 110.4 6.49922 110.2 6.79922C110 6.99922 109.9 7.29922 109.9 7.59922C109.9 7.89922 110 8.19922 110.2 8.39922C110.4 8.59922 110.7 8.79922 111 8.79922H114V6.39922Z" fill="black"/>
<path d="M134.4 14.9992H131.5V8.19922L126.5 14.9992H124V3.69922H126.9V10.1992L131.9 3.69922H134.4V14.9992Z" fill="black"/>
<path d="M151.3 12.2992H152.2V16.2992H149.5V14.9992H143.1V16.2992H140.4V12.2992C141.6 12.2992 142.3 10.9992 142.6 8.39922L143.1 3.69922H151.2V12.2992H151.3ZM148.6 6.19922H145.5L145.2 8.69922C145 10.1992 144.7 11.4992 144.2 12.1992H148.6V6.19922Z" fill="black"/>
<path d="M164.6 3.69922V14.8992H161.9V6.19922H158.5L157.8 11.2992C157.4 14.1992 156.2 15.3992 153.5 14.9992V12.4992C155 12.4992 155.1 11.8992 155.2 10.6992L156.1 3.69922H164.6Z" fill="black"/>
<path d="M176.8 3.69922V14.8992H173.9V11.2992H171.9L170.2 14.8992H166.9L168.9 10.8992C168.6 10.7992 168.3 10.5992 168.1 10.2992C167.3 9.59922 167 8.49922 167 7.49922C167 6.49922 167.4 5.39922 168.1 4.69922C168.9 3.99922 169.9 3.69922 170.9 3.69922H176.8ZM173.9 6.39922H170.9C170.6 6.39922 170.3 6.49922 170.1 6.79922C169.9 6.99922 169.8 7.29922 169.8 7.59922C169.8 7.89922 169.9 8.19922 170.1 8.39922C170.3 8.59922 170.6 8.79922 170.9 8.79922H173.9V6.39922Z" fill="black"/>
<path d="M192.9 6.19961C193.7 7.19961 194.2 8.59961 194.2 9.89961C194.3 11.3996 193.7 12.7996 192.7 13.7996C191.6 14.7996 190.2 15.2996 188.7 15.2996C187.2 15.2996 185.7 14.6996 184.8 13.5996C183.8 12.4996 183.5 11.1996 183.4 9.79961C183.3 8.49961 183.3 6.99961 183.6 5.49961C183.8 3.79961 184.6 2.19961 186 1.19961C187.3 0.299609 189.1 0.0996094 190.8 0.0996094C191.8 0.0996094 192.6 0.199609 193.3 0.299609V2.89961C192.4 2.79961 191.5 2.69961 190.8 2.69961C189.6 2.69961 188.3 2.69961 187.5 3.19961C186.6 3.79961 186.4 4.79961 186.3 5.69961C187.1 4.99961 188.1 4.59961 189.1 4.59961C190.5 4.49961 191.9 5.09961 192.9 6.19961ZM186.9 7.79961C186.5 8.29961 186.3 8.99961 186.3 9.79961C186.3 10.5996 186.4 11.2996 186.9 11.7996C187.3 12.2996 188 12.5996 188.8 12.5996C189.5 12.5996 190.2 12.3996 190.6 11.7996C191 11.2996 191.2 10.5996 191.2 9.79961C191.2 9.09961 191 8.29961 190.6 7.79961C190.2 7.29961 189.5 6.99961 188.8 6.99961C188 6.99961 187.3 7.19961 186.9 7.79961Z" fill="black"/>
<path d="M206.3 3.69922L201.5 16.4992C201.1 17.6992 200.5 18.6992 199.7 19.2992C198.9 19.8992 198 19.9992 197 19.9992H196.9V17.2992H197.2C197.5 17.2992 198.1 17.2992 198.3 17.1992C198.6 16.9992 199 16.2992 199.4 15.2992L195.1 3.69922H197.9L200.7 11.6992L203.6 3.69922H206.3Z" fill="black"/>
<path d="M214.8 9.29922L218.5 14.8992H215.3L212.3 10.3992H210.8V14.8992H207.9V3.69922H210.8V8.19922H212.3L215.1 3.69922H218.2L214.8 9.29922Z" fill="black"/>
<path d="M222.5 11.6992C223 12.2992 223.7 12.6992 224.5 12.6992C225.3 12.6992 226.1 12.3992 226.6 11.6992C226.7 11.5992 226.7 11.4992 226.8 11.2992L229.6 12.4992C229.4 12.7992 229.2 13.0992 228.9 13.3992C227.8 14.5992 226.2 15.2992 224.5 15.1992C222.8 15.0992 221.2 14.5992 220.2 13.2992C219.2 12.0992 218.8 10.6992 218.8 9.19922C218.8 7.59922 219.2 6.29922 220.2 5.09922C221.2 3.89922 222.8 3.19922 224.5 3.19922C226.2 3.19922 227.8 3.79922 228.8 5.09922C229.7 6.19922 230.2 7.69922 230.2 9.19922C230.2 9.39922 230.2 9.69922 230.2 9.99922H221.9C222 10.6992 222.2 11.1992 222.5 11.6992ZM222.5 6.99922C222.3 7.29922 222.1 7.59922 222 7.89922H227C226.9 7.59922 226.8 7.29922 226.6 6.99922C226.1 6.39922 225.4 5.99922 224.5 5.99922C223.8 6.09922 223 6.39922 222.5 6.99922Z" fill="black"/>
<path d="M241.8 6.19922H238.1V14.8992H235.3V6.19922H231.6V3.69922H241.8V6.19922Z" fill="black"/>
<path d="M244.2 13.4008C243.2 12.2008 242.8 10.9008 242.8 9.30078C242.8 7.70078 243.3 6.30078 244.2 5.20078C245.2 4.00078 246.9 3.30078 248.5 3.30078C250.2 3.30078 251.8 3.90078 252.8 5.20078C253.8 6.40078 254.2 7.70078 254.2 9.30078C254.2 10.9008 253.8 12.2008 252.8 13.4008C251.7 14.6008 250.2 15.3008 248.5 15.3008C246.9 15.3008 245.3 14.6008 244.2 13.4008ZM251.2 9.40078C251.2 8.50078 251 7.70078 250.6 7.00078C250.1 6.40078 249.4 6.10078 248.5 6.10078C247.6 6.10078 246.9 6.40078 246.4 7.00078C245.9 7.60078 245.8 8.50078 245.8 9.40078C245.8 10.3008 245.9 11.1008 246.4 11.7008C246.9 12.3008 247.6 12.7008 248.5 12.7008C249.4 12.7008 250.1 12.4008 250.6 11.7008C251.1 11.1008 251.2 10.2008 251.2 9.40078Z" fill="black"/>
<path d="M262.2 3.69922C263.2 3.69922 264.1 3.89922 264.8 4.49922C265.6 5.09922 266.1 5.99922 266.1 7.09922C266.1 7.59922 266 8.09922 265.8 8.59922C265.7 8.79922 265.6 8.89922 265.5 9.09922C265.9 9.39922 266.2 9.79922 266.4 10.1992C266.6 10.5992 266.8 11.1992 266.8 11.6992C266.8 12.6992 266.3 13.6992 265.5 14.2992C265 14.6992 264.1 14.9992 263.5 14.9992H256.7V3.79922L262.2 3.69922ZM259.4 8.29922H262.2C262.6 8.29922 262.9 8.19922 263.1 7.79922C263.2 7.59922 263.3 7.29922 263.3 7.09922C263.3 6.89922 263.3 6.59922 263.1 6.39922C262.9 5.99922 262.6 5.89922 262.2 5.89922H259.4V8.29922ZM259.4 12.7992H262.8C263.2 12.7992 263.4 12.6992 263.7 12.2992C263.8 12.0992 263.9 11.7992 263.9 11.5992C263.9 11.3992 263.9 11.0992 263.7 10.8992C263.5 10.5992 263.3 10.3992 262.8 10.3992H259.4V12.7992Z" fill="black"/>
</svg>
