<svg width="212" height="20" viewBox="0 0 212 20" fill="none" xmlns="http://www.w3.org/2000/svg">
<path d="M12.9 15H10.1V2.8H2.8V15H0V0H12.9V15Z" fill="black"/>
<path d="M16.7999 13.4008C15.7999 12.2008 15.3999 10.9008 15.3999 9.30078C15.3999 7.70078 15.8999 6.30078 16.7999 5.20078C17.7999 4.00078 19.4999 3.30078 21.0999 3.30078C22.7999 3.30078 24.3999 3.90078 25.3999 5.20078C26.3999 6.40078 26.7999 7.70078 26.7999 9.30078C26.7999 10.9008 26.3999 12.2008 25.3999 13.4008C24.2999 14.6008 22.7999 15.3008 21.0999 15.3008C19.3999 15.3008 17.7999 14.6008 16.7999 13.4008ZM23.7999 9.40078C23.7999 8.50078 23.5999 7.70078 23.1999 7.00078C22.6999 6.40078 21.9999 6.10078 21.0999 6.10078C20.2999 6.10078 19.4999 6.40078 18.9999 7.00078C18.4999 7.60078 18.3999 8.50078 18.3999 9.40078C18.3999 10.3008 18.4999 11.1008 18.9999 11.7008C19.4999 12.3008 20.1999 12.7008 21.0999 12.7008C21.8999 12.7008 22.6999 12.4008 23.1999 11.7008C23.5999 11.1008 23.7999 10.2008 23.7999 9.40078Z" fill="black"/>
<path d="M39.4 14.9992H36.6V6.59922H32V14.9992H29.2V3.69922H39.5V14.9992H39.4Z" fill="black"/>
<path d="M52.6 3.69922L47.8 16.4992C47.4 17.6992 46.8 18.6992 46 19.2992C45.2 19.8992 44.3 19.9992 43.3 19.9992H43.2V17.2992H43.5C43.8 17.2992 44.4 17.2992 44.6 17.1992C44.9 16.9992 45.3 16.2992 45.7 15.2992L41.3 3.69922H44.1L46.9 11.6992L49.8 3.69922H52.6Z" fill="black"/>
<path d="M64.2001 3.69922V14.8992H61.5001V6.19922H58.1001L57.4001 11.2992C57.0001 14.1992 55.8001 15.3992 53.1001 14.9992V12.4992C54.6001 12.4992 54.7001 11.8992 54.8001 10.6992L55.7001 3.69922H64.2001Z" fill="black"/>
<path d="M76.3 3.69922V14.8992H73.4V11.2992H71.4L69.7 14.8992H66.5L68.5 10.8992C68.2 10.7992 67.9 10.5992 67.7 10.2992C66.9 9.59922 66.6 8.49922 66.6 7.49922C66.6 6.49922 67 5.39922 67.7 4.69922C68.4 3.99922 69.5 3.69922 70.5 3.69922H76.3ZM73.5 6.39922H70.5C70.2 6.39922 69.9 6.49922 69.7 6.79922C69.5 6.99922 69.4 7.29922 69.4 7.59922C69.4 7.89922 69.5 8.19922 69.7 8.39922C69.9 8.59922 70.2 8.79922 70.5 8.79922H73.5V6.39922Z" fill="black"/>
<path d="M90.2 9.40039C90.2 10.9004 89.8 12.4004 88.9 13.5004C88 14.6004 86.5 15.3004 85 15.3004C83.9 15.3004 82.9 15.1004 82.1 14.5004V19.9004H79.2V3.70039H81.7V4.40039C82.6 3.80039 83.6999 3.40039 84.7999 3.40039C86.3999 3.40039 87.9 4.00039 88.7999 5.20039C89.6999 6.30039 90.2 7.80039 90.2 9.40039ZM87.2 9.40039C87.2 8.40039 87 7.60039 86.6 7.00039C86.1 6.30039 85.4 6.00039 84.5 6.00039C83.7 6.00039 83.1 6.20039 82.6 6.80039C82.1 7.40039 81.7999 8.40039 81.7999 9.40039C81.7999 10.4004 82 11.4004 82.6 12.0004C83.1 12.5004 83.8 12.8004 84.6 12.8004C85.4 12.8004 86.2 12.5004 86.7 11.8004C87 11.2004 87.2 10.3004 87.2 9.40039Z" fill="black"/>
<path d="M102.8 3.69922V14.8992H100V10.5992H95.4001V14.9992H92.6001V3.69922H95.4001V7.69922H100V3.69922H102.8Z" fill="black"/>
<path d="M108.6 3.69922V7.29922H110.8C111.8 7.29922 112.8 7.59922 113.6 8.29922C114.4 8.99922 114.7 10.0992 114.7 11.0992C114.7 12.0992 114.3 13.1992 113.6 13.8992C112.9 14.5992 111.8 14.8992 110.8 14.8992H105.7V3.69922H108.6ZM108.6 12.2992H110.7C111 12.2992 111.3 12.1992 111.5 11.8992C111.7 11.6992 111.8 11.3992 111.8 11.0992C111.8 10.7992 111.7 10.4992 111.5 10.2992C111.3 10.0992 111 9.89922 110.7 9.89922H108.6V12.2992ZM118.7 3.69922V14.8992H115.9V3.69922H118.7Z" fill="black"/>
<path d="M124.6 11.6992C125.1 12.2992 125.8 12.6992 126.6 12.6992C127.4 12.6992 128.2 12.3992 128.7 11.6992C128.8 11.5992 128.8 11.4992 128.9 11.2992L131.7 12.4992C131.5 12.7992 131.3 13.0992 131 13.3992C129.9 14.5992 128.3 15.2992 126.6 15.1992C124.9 15.0992 123.3 14.5992 122.3 13.2992C121.3 12.0992 120.9 10.6992 120.9 9.19922C120.9 7.59922 121.3 6.29922 122.3 5.09922C123.3 3.89922 124.9 3.19922 126.6 3.19922C128.3 3.19922 129.9 3.79922 130.9 5.09922C131.8 6.19922 132.3 7.69922 132.3 9.19922C132.3 9.39922 132.3 9.69922 132.3 9.99922H124C124.1 10.6992 124.3 11.1992 124.6 11.6992ZM124.6 6.99922C124.4 7.29922 124.2 7.59922 124.1 7.89922H129.1C129 7.59922 128.9 7.29922 128.7 6.99922C128.2 6.39922 127.5 5.99922 126.6 5.99922C125.8 6.09922 125.1 6.39922 124.6 6.99922Z" fill="black"/>
<path d="M147.8 6.19961C148.6 7.19961 149.1 8.59961 149.1 9.89961C149.2 11.3996 148.6 12.7996 147.6 13.7996C146.5 14.7996 145.1 15.2996 143.6 15.2996C142.1 15.2996 140.6 14.6996 139.7 13.5996C138.7 12.4996 138.4 11.1996 138.3 9.79961C138.2 8.49961 138.2 6.99961 138.5 5.49961C138.7 3.79961 139.5 2.19961 140.9 1.19961C142.2 0.299609 144 0.0996094 145.7 0.0996094C146.7 0.0996094 147.5 0.199609 148.2 0.299609V2.89961C147.3 2.69961 146.3 2.59961 145.6 2.59961C144.4 2.59961 143.1 2.59961 142.3 3.09961C141.4 3.69961 141.2 4.69961 141.1 5.59961C141.9 4.89961 142.9 4.49961 143.9 4.49961C145.5 4.49961 146.9 5.09961 147.8 6.19961ZM141.8 7.79961C141.4 8.29961 141.2 8.99961 141.2 9.79961C141.2 10.5996 141.3 11.2996 141.8 11.7996C142.2 12.2996 142.9 12.5996 143.7 12.5996C144.4 12.5996 145.1 12.3996 145.5 11.7996C145.9 11.2996 146.1 10.5996 146.1 9.79961C146.1 9.09961 145.9 8.29961 145.5 7.79961C145.1 7.29961 144.4 6.99961 143.7 6.99961C142.9 6.99961 142.2 7.19961 141.8 7.79961Z" fill="black"/>
<path d="M161.2 3.69922L156.4 16.4992C156 17.6992 155.4 18.6992 154.6 19.2992C153.8 19.8992 152.9 19.9992 151.9 19.9992H151.8V17.2992H152.1C152.4 17.2992 153 17.2992 153.2 17.1992C153.5 16.9992 153.9 16.2992 154.3 15.2992L150 3.69922H152.8L155.6 11.6992L158.5 3.69922H161.2Z" fill="black"/>
<path d="M169.7 9.29922L173.4 14.8992H170.2L167.2 10.3992H165.7V14.8992H162.8V3.69922H165.7V8.19922H167.2L170 3.69922H173.1L169.7 9.29922Z" fill="black"/>
<path d="M177.5 11.7008C178 12.3008 178.7 12.7008 179.5 12.7008C180.3 12.7008 181.1 12.4008 181.6 11.7008C181.7 11.6008 181.7 11.5008 181.8 11.3008L184.6 12.6008C184.4 12.9008 184.2 13.2008 183.9 13.5008C182.8 14.7008 181.2 15.4008 179.5 15.3008C177.8 15.2008 176.2 14.7008 175.2 13.4008C174.2 12.2008 173.8 10.8008 173.8 9.30078C173.8 7.70078 174.2 6.40078 175.2 5.20078C176.2 4.00078 177.8 3.30078 179.5 3.30078C181.2 3.30078 182.8 3.90078 183.8 5.20078C184.7 6.30078 185.2 7.80078 185.2 9.30078C185.2 9.50078 185.2 9.80078 185.2 10.1008H176.9C177 10.7008 177.1 11.2008 177.5 11.7008ZM177.5 7.00078C177.3 7.30078 177.1 7.60078 177 7.90078H182C181.9 7.60078 181.8 7.30078 181.6 7.00078C181.1 6.40078 180.4 6.00078 179.5 6.00078C178.7 6.10078 177.9 6.40078 177.5 7.00078Z" fill="black"/>
<path d="M196.7 6.19922H193V14.8992H190.2V6.19922H186.5V3.69922H196.7V6.19922Z" fill="black"/>
<path d="M201.6 3.69922V7.29922H203.8C204.8 7.29922 205.8 7.59922 206.6 8.29922C207.4 8.99922 207.7 10.0992 207.7 11.0992C207.7 12.0992 207.3 13.1992 206.6 13.8992C205.9 14.5992 204.8 14.8992 203.8 14.8992H198.7V3.69922H201.6ZM201.6 12.2992H203.7C204 12.2992 204.3 12.1992 204.5 11.8992C204.7 11.6992 204.8 11.3992 204.8 11.0992C204.8 10.7992 204.7 10.4992 204.5 10.2992C204.3 10.0992 204 9.89922 203.7 9.89922H201.6V12.2992ZM211.7 3.69922V14.8992H208.9V3.69922H211.7Z" fill="black"/>
</svg>
