<svg width="15" height="16" viewBox="0 0 15 16" fill="none" xmlns="http://www.w3.org/2000/svg">
<path d="M5.9824 0C2.67504 0 0 2.67504 0 5.9824C0 9.28977 2.67504 11.9648 5.9824 11.9648C7.16321 11.9648 8.25605 11.6184 9.18255 11.0301L13.5044 15.3519L15 13.8563L10.7331 9.60044C11.5002 8.59421 11.9648 7.34742 11.9648 5.9824C11.9648 2.67504 9.28977 0 5.9824 0ZM5.9824 1.40762C8.51585 1.40762 10.5572 3.44896 10.5572 5.9824C10.5572 8.51585 8.51585 10.5572 5.9824 10.5572C3.44896 10.5572 1.40762 8.51585 1.40762 5.9824C1.40762 3.44896 3.44896 1.40762 5.9824 1.40762Z" fill="white"/>
</svg>
