<svg width="22" height="21" viewBox="0 0 22 21" fill="none" xmlns="http://www.w3.org/2000/svg">
<path d="M0.705125 3.48653H4.39387C4.70666 4.67816 5.79058 5.55959 7.07626 5.55959C8.36194 5.55959 9.44586 4.67816 9.75865 3.48653H21.2948C21.6842 3.48653 21.9999 3.1701 21.9999 2.7798C21.9999 2.38949 21.6842 2.07307 21.2948 2.07307H9.75856C9.44576 0.881431 8.36184 0 7.07617 0C5.79049 0 4.70657 0.881431 4.39378 2.07307H0.705125C0.315708 2.07307 0 2.38949 0 2.7798C0 3.1701 0.315708 3.48653 0.705125 3.48653ZM7.07626 1.41346C7.82792 1.41346 8.4395 2.02642 8.4395 2.7798C8.4395 3.53317 7.82792 4.14614 7.07626 4.14614C6.3246 4.14614 5.71302 3.53317 5.71302 2.7798C5.71302 2.02642 6.3246 1.41346 7.07626 1.41346Z" fill="black"/>
<path d="M21.2948 9.79377H16.5949C16.2821 8.60213 15.1982 7.7207 13.9125 7.7207C12.6268 7.7207 11.5429 8.60213 11.2301 9.79377H0.705125C0.315708 9.79377 0 10.1102 0 10.5005C0 10.8908 0.315708 11.2072 0.705125 11.2072H11.2302C11.543 12.3988 12.6269 13.2803 13.9126 13.2803C15.1983 13.2803 16.2822 12.3988 16.595 11.2072H21.2949C21.6843 11.2072 22 10.8908 22 10.5005C22 10.1102 21.6842 9.79377 21.2948 9.79377ZM13.9126 11.8668C13.1609 11.8668 12.5493 11.2539 12.5493 10.5005C12.5493 9.74713 13.1609 9.13416 13.9126 9.13416C14.6643 9.13416 15.2758 9.74713 15.2758 10.5005C15.2758 11.2539 14.6643 11.8668 13.9126 11.8668Z" fill="black"/>
<path d="M21.2948 17.5125H9.75856C9.44576 16.321 8.36184 15.4395 7.07617 15.4395C5.79049 15.4395 4.70657 16.321 4.39378 17.5125H0.705125C0.315708 17.5125 0 17.8289 0 18.2193C0 18.6096 0.315708 18.926 0.705125 18.926H4.39387C4.70666 20.1176 5.79058 20.999 7.07626 20.999C8.36194 20.999 9.44586 20.1176 9.75865 18.926H21.2948C21.6842 18.926 21.9999 18.6096 21.9999 18.2193C21.9999 17.8289 21.6842 17.5125 21.2948 17.5125ZM7.07626 19.5856C6.3246 19.5856 5.71302 18.9726 5.71302 18.2193C5.71302 17.4659 6.3246 16.8529 7.07626 16.8529C7.82792 16.8529 8.4395 17.4659 8.4395 18.2193C8.4395 18.9726 7.82792 19.5856 7.07626 19.5856Z" fill="black"/>
</svg>
