<svg width="21" height="32" viewBox="0 0 21 32" fill="none" xmlns="http://www.w3.org/2000/svg">
<path d="M20.1573 0.985744L15.1398 0.979492C9.50293 0.979492 5.86011 3.88206 5.86011 8.37455V11.7842H0.81531C0.379379 11.7842 0.0263672 12.0586 0.0263672 12.3972V17.3373C0.0263672 17.6759 0.379781 17.95 0.81531 17.95H5.86011V30.4156C5.86011 30.7542 6.21312 31.0283 6.64905 31.0283H13.2311C13.667 31.0283 14.02 30.7539 14.02 30.4156V17.95H19.9186C20.3545 17.95 20.7075 17.6759 20.7075 17.3373L20.7099 12.3972C20.7099 12.2346 20.6266 12.079 20.4789 11.9639C20.3312 11.8489 20.1299 11.7842 19.9206 11.7842H14.02V8.89379C14.02 7.50456 14.4463 6.79932 16.7765 6.79932L20.1565 6.79838C20.592 6.79838 20.945 6.52391 20.945 6.18567V1.59846C20.945 1.26053 20.5924 0.98637 20.1573 0.985744Z" fill="black"/>
</svg>
