<svg width="191" height="27" viewBox="0 0 191 27" fill="none" xmlns="http://www.w3.org/2000/svg">
<path d="M14.3 5.2998L9 19.8998H5.3L0 5.2998H3.7L7.2 15.3998L10.7 5.2998H14.3Z" fill="black"/>
<path d="M20.4002 0V3.3H16.7002V0H20.4002ZM20.4002 5.3V19.9H16.7002V5.3H20.4002Z" fill="black"/>
<path d="M38.7 12.6004C38.7 14.6004 38.2 16.5004 37 18.0004C35.8 19.5004 33.9 20.3004 32 20.3004C30.6 20.3004 29.3 20.0004 28.2 19.3004V26.4004H24.5V5.30039H27.7V6.20039C28.8 5.40039 30.2 4.90039 31.7 4.90039C33.7 4.90039 35.7 5.70039 36.9 7.20039C38.1 8.70039 38.7 10.6004 38.7 12.6004ZM34.8 12.6004C34.8 11.4004 34.5 10.2004 34 9.50039C33.4 8.50039 32.5 8.20039 31.2 8.20039C30.2 8.20039 29.3 8.50039 28.7 9.20039C28 10.0004 27.7 11.3004 27.7 12.6004C27.7 13.9004 28 15.2004 28.7 16.0004C29.3 16.7004 30.2 17.0004 31.3 17.0004C32.3 17.0004 33.4 16.6004 34 15.7004C34.6 15.0004 34.8 13.9004 34.8 12.6004Z" fill="black"/>
<path d="M55.8998 12.6004C55.8998 14.6004 55.3998 16.5004 54.1998 18.0004C52.9998 19.5004 51.0998 20.3004 49.1998 20.3004C47.5998 20.3004 46.0998 19.9004 44.9998 19.0004V19.9004H41.7998V0.400391H45.4998V5.90039C46.4998 5.30039 47.7998 4.90039 49.0998 4.90039C51.0998 4.90039 53.0998 5.70039 54.2998 7.20039C55.2998 8.70039 55.8998 10.6004 55.8998 12.6004ZM51.9998 12.6004C51.9998 11.4004 51.6998 10.2004 51.1998 9.50039C50.5998 8.50039 49.6998 8.20039 48.3998 8.20039C47.3998 8.20039 46.4998 8.50039 45.8998 9.20039C45.1998 10.0004 44.8998 11.3004 44.8998 12.6004C44.8998 13.9004 45.1998 15.2004 45.8998 16.0004C46.4998 16.7004 47.3998 17.0004 48.4998 17.0004C49.4998 17.0004 50.5998 16.6004 51.1998 15.7004C51.7998 15.0004 51.9998 13.9004 51.9998 12.6004Z" fill="black"/>
<path d="M59.9001 17.9004C58.7001 16.4004 58.1001 14.6004 58.1001 12.6004C58.1001 10.5004 58.7001 8.70039 59.9001 7.30039C61.3001 5.70039 63.4001 4.90039 65.5001 4.90039C67.7001 4.90039 69.8001 5.70039 71.1001 7.30039C72.4001 8.80039 72.9001 10.6004 72.9001 12.6004C72.9001 14.7004 72.3001 16.3004 71.1001 17.9004C69.7001 19.5004 67.7001 20.3004 65.5001 20.3004C63.3001 20.3004 61.2001 19.5004 59.9001 17.9004ZM69.0001 12.6004C69.0001 11.5004 68.8001 10.4004 68.2001 9.50039C67.6001 8.70039 66.6001 8.30039 65.5001 8.30039C64.4001 8.30039 63.4001 8.70039 62.8001 9.50039C62.2001 10.3004 62.0001 11.5004 62.0001 12.6004C62.0001 13.7004 62.2001 14.8004 62.8001 15.6004C63.4001 16.4004 64.4001 16.8004 65.5001 16.8004C66.6001 16.8004 67.6001 16.4004 68.2001 15.6004C68.8001 14.8004 69.0001 13.7004 69.0001 12.6004Z" fill="black"/>
<path d="M89.0002 5.2998V19.8998H85.7002V18.8998C84.5002 19.7998 83.1002 20.2998 81.7002 20.2998C80.1002 20.3998 78.3002 19.6998 77.2002 18.6998C75.5002 17.0998 75.2002 15.1998 75.2002 12.5998V5.2998H78.9002V12.5998C78.9002 13.8998 79.1002 15.1998 79.9002 15.8998C80.4002 16.3998 81.2002 16.6998 82.2002 16.6998C82.9002 16.6998 83.4002 16.4998 83.9002 16.0998C84.4002 15.6998 84.8002 14.9998 85.0002 14.1998C85.1002 13.5998 85.2002 12.4998 85.2002 11.4998V5.2998H89.0002Z" fill="black"/>
<path d="M106.2 5.30039V26.4004H102.5V19.3004C101.4 19.9004 100.1 20.3004 98.7 20.3004C96.8 20.3004 94.9 19.5004 93.7 18.0004C92.5 16.5004 92 14.6004 92 12.6004C92 10.6004 92.6 8.60039 93.7 7.20039C94.9 5.70039 96.9 4.90039 98.9 4.90039C100.4 4.90039 101.8 5.40039 102.9 6.20039V5.30039H106.2ZM102 16.0004C102.7 15.2004 103 13.9004 103 12.6004C103 11.3004 102.7 10.0004 102 9.20039C101.4 8.50039 100.5 8.20039 99.5 8.20039C98.3 8.20039 97.3 8.50039 96.7 9.50039C96.2 10.3004 95.9 11.4004 95.9 12.6004C95.9 13.8004 96.1 15.0004 96.6 15.7004C97.2 16.6004 98.3 17.0004 99.3 17.0004C100.4 17.1004 101.3 16.7004 102 16.0004Z" fill="black"/>
<path d="M123.2 5.2998V19.8998H119.9V18.8998C118.7 19.7998 117.3 20.2998 115.9 20.2998C114.3 20.3998 112.5 19.6998 111.4 18.6998C109.7 17.0998 109.4 15.1998 109.4 12.5998V5.2998H113.1V12.5998C113.1 13.8998 113.3 15.1998 114.1 15.8998C114.6 16.3998 115.4 16.6998 116.4 16.6998C117.1 16.6998 117.6 16.4998 118.1 16.0998C118.6 15.6998 119 14.9998 119.2 14.1998C119.3 13.5998 119.4 12.4998 119.4 11.4998V5.2998H123.2Z" fill="black"/>
<path d="M130.9 15.6004C131.5 16.4004 132.5 16.8004 133.6 16.8004C134.7 16.8004 135.7 16.4004 136.3 15.6004C136.4 15.4004 136.5 15.3004 136.6 15.1004L140.3 16.7004C140.1 17.1004 139.8 17.5004 139.4 17.9004C137.9 19.5004 135.8 20.4004 133.7 20.3004C131.5 20.2004 129.4 19.5004 128.1 17.9004C126.9 16.4004 126.3 14.5004 126.3 12.6004C126.4 10.6004 126.9 8.80039 128.1 7.30039C129.5 5.70039 131.5 4.90039 133.7 4.90039C135.9 4.90039 138 5.70039 139.3 7.30039C140.5 8.80039 141.1 10.6004 141.1 12.6004C141.1 12.9004 141.1 13.3004 141 13.6004H130.2C130.3 14.4004 130.5 15.1004 130.9 15.6004ZM130.9 9.60039C130.6 10.0004 130.4 10.4004 130.3 10.8004H136.8C136.7 10.4004 136.5 10.0004 136.2 9.60039C135.6 8.80039 134.6 8.40039 133.5 8.40039C132.5 8.30039 131.5 8.70039 130.9 9.60039Z" fill="black"/>
<path d="M149 8.10019V13.4002C149 14.5002 149 15.4002 149.4 15.9002C149.8 16.4002 150.3 16.7002 150.9 16.8002C151.6 16.9002 152.5 16.8002 153.3 16.7002V19.9002C152.1 20.2002 150.1 20.3002 149 20.0002C147.7 19.6002 146.6 19.0002 146.1 17.9002C145.5 16.7002 145.4 15.3002 145.4 13.7002V8.10019H142.4V5.3002H145.4V1.2002H149.1V5.3002H153.3V8.10019H149Z" fill="black"/>
<path d="M160.8 16.2002V19.9002H157.1V16.2002H160.8Z" fill="black"/>
<path d="M175 5.30039V8.70039C174.2 8.40039 173.2 8.20039 172.2 8.30039C171.1 8.40039 170.4 8.80039 169.9 9.30039C169.3 10.0004 169 11.0004 169 12.1004V19.9004H165.3V5.30039H168.5V7.30039C168.9 6.60039 169.4 6.10039 170.1 5.70039C170.9 5.20039 171.8 5.00039 172.6 4.90039C173.3 4.90039 174.2 5.00039 175 5.30039Z" fill="black"/>
<path d="M190.7 5.2998V19.8998H187.4V18.8998C186.2 19.7998 184.8 20.2998 183.4 20.2998C181.8 20.3998 180 19.6998 178.9 18.6998C177.2 17.0998 176.9 15.1998 176.9 12.5998V5.2998H180.6V12.5998C180.6 13.8998 180.8 15.1998 181.6 15.8998C182.1 16.3998 182.9 16.6998 183.9 16.6998C184.6 16.6998 185.1 16.4998 185.6 16.0998C186.1 15.6998 186.5 14.9998 186.7 14.1998C186.8 13.5998 186.9 12.4998 186.9 11.4998V5.2998H190.7Z" fill="black"/>
</svg>
